<svg viewBox="41.90000000000009 20.942307692307736 1592.1999999999996 1047.1153846153845" fill="none" xmlns="http://www.w3.org/2000/svg" xmlns:xlink="http://www.w3.org/1999/xlink" overflow="visible" width="1592.1999999999996px" height="1047.1153846153845px"><g id="Master/Scene/Chatting"><g id="Group 41"><g id="Group 5"><path id="Fill 1" fill-rule="evenodd" clip-rule="evenodd" d="M1631.29 976.212C1631.29 954.049 1528.87 934.142 1366.21 920.461H311.005C148.342 934.142 45.9199 954.049 45.9199 976.212C45.9199 1003.21 197.966 1026.87 425.777 1039.99C546.019 1046.92 687.364 1050.91 838.607 1050.91C989.851 1050.91 1131.19 1046.92 1251.44 1039.99C1479.25 1026.87 1631.29 1003.21 1631.29 976.212" fill="#CADBDA"/><path id="Fill 3" fill-rule="evenodd" clip-rule="evenodd" d="M1366.21 920.461C1453.07 827.915 1504.75 711.888 1504.75 585.929C1504.75 283.317 1206.51 38.0031 838.607 38.0031C470.708 38.0031 172.466 283.317 172.466 585.929C172.466 711.888 224.146 827.915 311.006 920.461H1366.21Z" fill="#F4F9F8"/></g><g id="Group 12"><g id="Group 8"><mask id="mask0_122_145722238c05e-a418-43ed-a2cb-99f3fc5284c6" style="mask-type:alpha" maskUnits="userSpaceOnUse" x="172" y="38" width="1333" height="883" fill="#ffffff"><path id="Clip 7" fill-rule="evenodd" clip-rule="evenodd" d="M838.606 38.003C470.707 38.003 172.465 283.318 172.465 585.929V585.929C172.465 711.888 224.145 827.916 311.005 920.461V920.461H1366.21C1453.07 827.916 1504.75 711.888 1504.75 585.929V585.929C1504.75 283.318 1206.51 38.003 838.606 38.003Z" fill="#ffffff"/></mask><g mask="url(#mask0_122_145722238c05e-a418-43ed-a2cb-99f3fc5284c6)"><path id="Fill 6" fill-rule="evenodd" clip-rule="evenodd" d="M283.799 257.302L321.028 256.851L358.257 256.511L432.716 255.839L507.174 255.345L525.788 255.231L535.095 255.187C535.883 255.193 536.626 255.163 537.368 255.134C538.113 255.099 538.86 255.1 539.603 255.037C541.086 254.88 542.576 254.788 544.043 254.511C549.946 253.622 555.654 251.64 560.98 248.935C566.286 246.176 571.192 242.64 575.567 238.531C576.624 237.464 577.745 236.462 578.737 235.329L580.265 233.673L581.715 231.945C582.678 230.816 583.644 229.574 584.608 228.363L587.502 224.718L599.076 210.14L610.67 195.576L616.47 188.298C618.407 185.87 620.297 183.454 622.409 180.984C626.616 176.142 631.463 171.829 636.794 168.187C639.505 166.436 642.27 164.741 645.219 163.392C646.659 162.648 648.188 162.091 649.677 161.452L651.973 160.641C652.736 160.362 653.507 160.111 654.294 159.904C657.397 158.925 660.615 158.361 663.834 157.902C667.036 157.524 670.425 157.436 673.454 157.456L692.069 157.404L840.985 157.238L989.902 157.396L999.209 157.422L1003.86 157.435L1006.19 157.443L1008.62 157.515C1010.25 157.525 1011.87 157.764 1013.49 157.898L1015.91 158.274L1017.11 158.468L1018.3 158.73C1021.5 159.351 1024.6 160.378 1027.64 161.499C1039.76 166.206 1050.15 174.723 1057.9 184.777L1081.1 213.896L1092.67 228.474L1098.46 235.764C1100.39 238.18 1102.32 240.677 1104.24 242.936C1108.14 247.526 1112.66 251.554 1117.58 254.972C1120.07 256.633 1122.63 258.199 1125.34 259.474C1128.01 260.814 1130.81 261.872 1133.66 262.76C1136.51 263.655 1139.45 264.232 1142.4 264.669L1144.63 264.894L1145.74 265.003L1146.86 265.045L1149.1 265.125L1151.42 265.136L1170.04 265.247L1244.5 265.743L1318.95 266.419L1356.18 266.761L1393.41 267.214L1356.18 267.667L1318.95 268.009L1244.5 268.685L1170.04 269.18L1151.42 269.291L1149.1 269.302L1146.68 269.241L1145.48 269.206L1144.27 269.101L1141.87 268.879C1138.68 268.441 1135.5 267.843 1132.42 266.909C1129.34 265.984 1126.31 264.866 1123.42 263.456C1120.5 262.111 1117.74 260.46 1115.05 258.704C1109.75 255.097 1104.89 250.838 1100.71 246.005C1098.58 243.56 1096.7 241.161 1094.74 238.747L1088.88 231.513L1077.17 217.043L1053.8 188.065C1052.82 186.827 1051.85 185.734 1050.88 184.575C1049.9 183.45 1048.86 182.37 1047.83 181.288C1046.74 180.269 1045.71 179.171 1044.56 178.22L1042.87 176.747L1041.12 175.364C1036.43 171.677 1031.19 168.757 1025.68 166.603C1022.9 165.603 1020.08 164.677 1017.18 164.136L1016.09 163.902L1015 163.735L1012.82 163.405C1011.35 163.299 1009.88 163.081 1008.41 163.087L1006.19 163.031L1003.86 163.037L999.209 163.05L989.902 163.077L840.985 163.235L692.069 163.069L673.454 163.017L671.127 163.009C670.351 163.007 669.644 163.046 668.898 163.061C667.423 163.058 665.959 163.254 664.49 163.369C661.573 163.775 658.651 164.26 655.825 165.138C655.109 165.32 654.405 165.546 653.709 165.798L651.612 166.523C650.251 167.105 648.851 167.595 647.53 168.274C644.823 169.489 642.276 171.038 639.768 172.633C634.837 175.965 630.31 179.936 626.353 184.439C624.419 186.673 622.467 189.131 620.521 191.544L614.679 198.79L602.987 213.275L591.277 227.745L588.349 231.363C587.37 232.569 586.42 233.769 585.359 234.993L583.8 236.814L582.159 238.564C581.091 239.755 579.887 240.819 578.748 241.942C574.041 246.281 568.752 250.024 563.018 252.935C557.263 255.794 551.082 257.873 544.693 258.777C543.105 259.058 541.493 259.15 539.89 259.299C538.297 259.368 536.633 259.425 535.095 259.415L525.788 259.372L507.174 259.258L432.716 258.763L358.257 258.092L321.028 257.751L283.799 257.302Z" fill="#CADBDA"/></g></g><g id="Group 11"><mask id="mask1_122_145722238c05e-a418-43ed-a2cb-99f3fc5284c6" style="mask-type:alpha" maskUnits="userSpaceOnUse" x="172" y="38" width="1333" height="883" fill="#ffffff"><path id="Clip 10" fill-rule="evenodd" clip-rule="evenodd" d="M838.606 38.003C470.707 38.003 172.465 283.318 172.465 585.929V585.929C172.465 711.888 224.145 827.916 311.005 920.461V920.461H1366.21C1453.07 827.916 1504.75 711.888 1504.75 585.929V585.929C1504.75 283.318 1206.51 38.003 838.606 38.003Z" fill="#ffffff"/></mask><g mask="url(#mask1_122_145722238c05e-a418-43ed-a2cb-99f3fc5284c6)"><path id="Fill 9" fill-rule="evenodd" clip-rule="evenodd" d="M1521.54 568.884L1476.3 569.335L1431.07 569.675L1340.59 570.347L1159.64 571.216L1148.33 571.26C1146.41 571.252 1144.66 571.318 1142.85 571.417L1140.16 571.679C1139.26 571.8 1138.38 571.957 1137.48 572.093C1133.94 572.733 1130.45 573.718 1127.08 575.015C1123.71 576.32 1120.48 577.994 1117.4 579.892C1114.31 581.78 1111.41 583.986 1108.69 586.391C1107.3 587.562 1106.03 588.872 1104.72 590.139C1103.49 591.48 1102.22 592.787 1101.08 594.212C1099.91 595.574 1098.73 597.093 1097.56 598.557L1094.03 602.978L1086.98 611.818L1072.87 629.499L1065.82 638.34L1062.29 642.763C1061.03 644.257 1059.8 645.772 1058.44 647.179C1055.79 650.039 1052.92 652.724 1049.81 655.117C1046.71 657.513 1043.46 659.738 1039.96 661.558C1036.48 663.398 1032.83 664.941 1029.06 666.13C1025.29 667.311 1021.38 668.074 1017.44 668.48C1015.48 668.714 1013.47 668.741 1011.52 668.795L1005.87 668.808L994.557 668.825L971.938 668.843L926.702 668.878L836.227 668.947L745.753 668.881L700.516 668.846L677.897 668.827C676.058 668.841 674.008 668.783 672.045 668.669L669.084 668.392L666.146 667.941C662.245 667.24 658.421 666.159 654.733 664.741C651.043 663.323 647.53 661.496 644.181 659.439C640.822 657.386 637.678 655.009 634.75 652.408C633.251 651.143 631.888 649.738 630.491 648.37C629.164 646.935 627.81 645.525 626.587 644.003C625.298 642.497 624.175 641.038 622.987 639.562L619.46 635.141L591.25 599.778L584.197 590.937L580.671 586.517C580.083 585.764 579.497 585.076 578.912 584.378C578.316 583.689 577.764 582.959 577.129 582.307C572.254 576.901 566.596 572.195 560.275 568.661C553.994 565.056 547.017 562.756 539.876 561.794L537.185 561.534C536.288 561.445 535.385 561.456 534.485 561.411C532.694 561.339 530.741 561.378 528.877 561.357L517.568 561.314L336.62 560.443L246.146 559.767L200.908 559.425L155.671 558.972L200.908 558.519L246.146 558.177L336.62 557.501L517.568 556.631L528.877 556.587C530.783 556.595 532.601 556.539 534.578 556.599C535.561 556.638 536.546 556.622 537.526 556.71L540.466 556.973C548.27 557.955 555.895 560.417 562.728 564.267C569.607 568.044 575.708 573.099 580.951 578.855C581.634 579.552 582.228 580.324 582.867 581.059C583.497 581.802 584.135 582.548 584.71 583.279L588.258 587.683L595.352 596.489L623.728 631.72L627.275 636.124C628.456 637.579 629.644 639.101 630.816 640.452C631.961 641.866 633.229 643.168 634.465 644.498C635.769 645.757 637.037 647.059 638.428 648.219C641.146 650.611 644.051 652.785 647.136 654.648C650.214 656.519 653.426 658.172 656.784 659.443C660.14 660.714 663.604 661.674 667.126 662.29L669.778 662.691L672.447 662.935C674.245 663.031 675.968 663.086 677.897 663.072L700.516 663.054L745.753 663.019L836.227 662.951L926.702 663.021L971.938 663.056L994.557 663.073L1005.87 663.091L1011.52 663.104C1013.33 663.058 1015.1 663.049 1016.89 662.842C1020.45 662.491 1023.98 661.822 1027.41 660.766C1030.83 659.7 1034.16 658.313 1037.35 656.646C1040.56 655.001 1043.56 652.966 1046.43 650.771C1049.31 648.579 1051.98 646.103 1054.46 643.452C1055.73 642.152 1056.88 640.741 1058.06 639.355L1061.61 634.962L1068.7 626.154L1082.89 608.538L1089.98 599.731L1093.53 595.327C1094.72 593.857 1095.86 592.4 1097.15 590.905C1098.38 589.392 1099.74 587.995 1101.07 586.569C1102.47 585.214 1103.84 583.821 1105.33 582.567C1108.27 579.992 1111.41 577.64 1114.77 575.622C1118.12 573.597 1121.63 571.81 1125.31 570.419C1128.98 569.036 1132.79 567.991 1136.66 567.325C1137.63 567.183 1138.6 567.021 1139.58 566.896L1142.52 566.634C1144.47 566.536 1146.49 566.486 1148.33 566.509L1159.64 566.552L1340.59 567.423L1431.07 568.094L1476.3 568.435L1521.54 568.884Z" fill="#CADBDA"/></g></g></g><g id="Group 40"><g id="Group 15"><mask id="mask2_122_145722238c05e-a418-43ed-a2cb-99f3fc5284c6" style="mask-type:alpha" maskUnits="userSpaceOnUse" x="45" y="920" width="1587" height="131" fill="#ffffff"><path id="Clip 14" fill-rule="evenodd" clip-rule="evenodd" d="M1366.21 920.461C1529.15 934.143 1631.76 954.062 1631.76 976.238C1631.76 1017.49 1276.65 1050.94 838.607 1050.94C400.562 1050.94 45.4561 1017.49 45.4561 976.238C45.4561 954.062 148.063 934.143 311.005 920.461" fill="#ffffff"/></mask><g mask="url(#mask2_122_145722238c05e-a418-43ed-a2cb-99f3fc5284c6)"><path id="Stroke 13 (Stroke)" fill-rule="evenodd" clip-rule="evenodd" d="M1551.65 954.053H99.7607V950.053H1551.65V954.053Z" fill="white"/></g></g><g id="Group 18"><mask id="mask3_122_145722238c05e-a418-43ed-a2cb-99f3fc5284c6" style="mask-type:alpha" maskUnits="userSpaceOnUse" x="45" y="920" width="1587" height="131" fill="#ffffff"><path id="Clip 17" fill-rule="evenodd" clip-rule="evenodd" d="M1366.21 920.461C1529.15 934.143 1631.76 954.062 1631.76 976.238C1631.76 1017.49 1276.65 1050.94 838.607 1050.94C400.562 1050.94 45.4561 1017.49 45.4561 976.238C45.4561 954.062 148.063 934.143 311.005 920.461" fill="#ffffff"/></mask><g mask="url(#mask3_122_145722238c05e-a418-43ed-a2cb-99f3fc5284c6)"><path id="Stroke 16 (Stroke)" fill-rule="evenodd" clip-rule="evenodd" d="M-16.0605 1011.43H1672.75V1015.43H-16.0605V1011.43Z" fill="white"/></g></g><g id="Group 21"><mask id="mask4_122_145722238c05e-a418-43ed-a2cb-99f3fc5284c6" style="mask-type:alpha" maskUnits="userSpaceOnUse" x="45" y="920" width="1587" height="131" fill="#ffffff"><path id="Clip 20" fill-rule="evenodd" clip-rule="evenodd" d="M1366.21 920.461C1529.15 934.143 1631.76 954.062 1631.76 976.238C1631.76 1017.49 1276.65 1050.94 838.607 1050.94C400.562 1050.94 45.4561 1017.49 45.4561 976.238C45.4561 954.062 148.063 934.143 311.005 920.461" fill="#ffffff"/></mask><g mask="url(#mask4_122_145722238c05e-a418-43ed-a2cb-99f3fc5284c6)"><path id="Stroke 19 (Stroke)" fill-rule="evenodd" clip-rule="evenodd" d="M829.204 754.687V1197.79H825.204V754.687H829.204Z" fill="white"/></g></g><g id="Group 24"><mask id="mask5_122_145722238c05e-a418-43ed-a2cb-99f3fc5284c6" style="mask-type:alpha" maskUnits="userSpaceOnUse" x="45" y="920" width="1587" height="131" fill="#ffffff"><path id="Clip 23" fill-rule="evenodd" clip-rule="evenodd" d="M1366.21 920.461C1529.15 934.143 1631.76 954.062 1631.76 976.238C1631.76 1017.49 1276.65 1050.94 838.607 1050.94C400.562 1050.94 45.4561 1017.49 45.4561 976.238C45.4561 954.062 148.063 934.143 311.005 920.461" fill="#ffffff"/></mask><g mask="url(#mask5_122_145722238c05e-a418-43ed-a2cb-99f3fc5284c6)"><path id="Stroke 22 (Stroke)" fill-rule="evenodd" clip-rule="evenodd" d="M830.627 756.436L561.417 1199.87L557.998 1197.79L827.208 754.36L830.627 756.436Z" fill="white"/></g></g><g id="Group 27"><mask id="mask6_122_145722238c05e-a418-43ed-a2cb-99f3fc5284c6" style="mask-type:alpha" maskUnits="userSpaceOnUse" x="45" y="920" width="1587" height="131" fill="#ffffff"><path id="Clip 26" fill-rule="evenodd" clip-rule="evenodd" d="M1366.21 920.461C1529.15 934.143 1631.76 954.062 1631.76 976.238C1631.76 1017.49 1276.65 1050.94 838.607 1050.94C400.562 1050.94 45.4561 1017.49 45.4561 976.238C45.4561 954.062 148.063 934.143 311.005 920.461" fill="#ffffff"/></mask><g mask="url(#mask6_122_145722238c05e-a418-43ed-a2cb-99f3fc5284c6)"><path id="Stroke 25 (Stroke)" fill-rule="evenodd" clip-rule="evenodd" d="M829.53 757.618L207.109 1201.05L204.788 1197.79L827.209 754.36L829.53 757.618Z" fill="white"/></g></g><g id="Group 30"><mask id="mask7_122_145722238c05e-a418-43ed-a2cb-99f3fc5284c6" style="mask-type:alpha" maskUnits="userSpaceOnUse" x="45" y="920" width="1587" height="131" fill="#ffffff"><path id="Clip 29" fill-rule="evenodd" clip-rule="evenodd" d="M1366.21 920.461C1529.15 934.143 1631.76 954.062 1631.76 976.238C1631.76 1017.49 1276.65 1050.94 838.607 1050.94C400.562 1050.94 45.4561 1017.49 45.4561 976.238C45.4561 954.062 148.063 934.143 311.005 920.461" fill="#ffffff"/></mask><g mask="url(#mask7_122_145722238c05e-a418-43ed-a2cb-99f3fc5284c6)"><path id="Stroke 28 (Stroke)" fill-rule="evenodd" clip-rule="evenodd" d="M828.804 758.028L-190.607 1201.46L-192.202 1197.79L827.209 754.36L828.804 758.028Z" fill="white"/></g></g><g id="Group 33"><mask id="mask8_122_145722238c05e-a418-43ed-a2cb-99f3fc5284c6" style="mask-type:alpha" maskUnits="userSpaceOnUse" x="45" y="920" width="1587" height="131" fill="#ffffff"><path id="Clip 32" fill-rule="evenodd" clip-rule="evenodd" d="M1366.21 920.461C1529.15 934.143 1631.76 954.062 1631.76 976.238C1631.76 1017.49 1276.65 1050.94 838.607 1050.94C400.562 1050.94 45.4561 1017.49 45.4561 976.238C45.4561 954.062 148.063 934.143 311.005 920.461" fill="#ffffff"/></mask><g mask="url(#mask8_122_145722238c05e-a418-43ed-a2cb-99f3fc5284c6)"><path id="Stroke 31 (Stroke)" fill-rule="evenodd" clip-rule="evenodd" d="M830.55 754.36L1122.56 1197.79L1119.21 1199.99L827.209 756.56L830.55 754.36Z" fill="white"/></g></g><g id="Group 36"><mask id="mask9_122_145722238c05e-a418-43ed-a2cb-99f3fc5284c6" style="mask-type:alpha" maskUnits="userSpaceOnUse" x="45" y="920" width="1587" height="131" fill="#ffffff"><path id="Clip 35" fill-rule="evenodd" clip-rule="evenodd" d="M1366.21 920.461C1529.15 934.143 1631.76 954.062 1631.76 976.238C1631.76 1017.49 1276.65 1050.94 838.607 1050.94C400.562 1050.94 45.4561 1017.49 45.4561 976.238C45.4561 954.062 148.063 934.143 311.005 920.461" fill="#ffffff"/></mask><g mask="url(#mask9_122_145722238c05e-a418-43ed-a2cb-99f3fc5284c6)"><path id="Stroke 34 (Stroke)" fill-rule="evenodd" clip-rule="evenodd" d="M829.474 754.36L1474.69 1197.79L1472.42 1201.09L827.208 757.657L829.474 754.36Z" fill="white"/></g></g><g id="Group 39"><mask id="mask10_122_145722238c05e-a418-43ed-a2cb-99f3fc5284c6" style="mask-type:alpha" maskUnits="userSpaceOnUse" x="45" y="920" width="1587" height="131" fill="#ffffff"><path id="Clip 38" fill-rule="evenodd" clip-rule="evenodd" d="M1366.21 920.461C1529.15 934.143 1631.76 954.062 1631.76 976.238C1631.76 1017.49 1276.65 1050.94 838.607 1050.94C400.562 1050.94 45.4561 1017.49 45.4561 976.238C45.4561 954.062 148.063 934.143 311.005 920.461" fill="#ffffff"/></mask><g mask="url(#mask10_122_145722238c05e-a418-43ed-a2cb-99f3fc5284c6)"><path id="Stroke 37 (Stroke)" fill-rule="evenodd" clip-rule="evenodd" d="M828.775 754.36L1870.98 1197.79L1869.42 1201.47L827.209 758.041L828.775 754.36Z" fill="white"/></g></g></g></g><g id="Chair"><g id="Group 16"><path id="Fill 1_2" fill-rule="evenodd" clip-rule="evenodd" d="M481.751 358C435.072 358 370.779 394.413 366.105 632.211C362.366 822.412 459.953 873.311 525.678 873.311C609.457 873.311 659.659 792.137 659.659 792.137C560.577 691.22 559.586 511.224 555.732 473.238C552.65 442.854 542.522 358 481.751 358" fill="#EFECDF"/><g id="Group 5_2"><mask id="mask11_122_145722238c05e-a418-43ed-a2cb-99f3fc5284c6" style="mask-type:alpha" maskUnits="userSpaceOnUse" x="411" y="358" width="249" height="435" fill="#ffffff"><path id="Clip 4" fill-rule="evenodd" clip-rule="evenodd" d="M411.42 358.135H659.66V792.137H411.42V358.135Z" fill="#ffffff"/></mask><g mask="url(#mask11_122_145722238c05e-a418-43ed-a2cb-99f3fc5284c6)"><path id="Fill 3_2" fill-rule="evenodd" clip-rule="evenodd" d="M485.661 358.135C440.15 358.669 411.42 423.036 411.42 490.342C411.42 593.311 428.468 759.477 525.679 792.137H659.66C560.578 691.22 559.587 511.224 555.733 473.239C552.719 443.518 542.954 361.702 485.661 358.135" fill="#36B2B2"/></g></g><path id="Fill 6_2" fill-rule="evenodd" clip-rule="evenodd" d="M540.967 872.401C536.004 872.994 530.907 873.31 525.679 873.31C520.786 873.31 515.714 873.021 510.523 872.421C512.656 876.152 519.184 889.669 519.184 915.458C519.184 946.283 506.854 973.586 506.854 973.586C506.854 973.586 512.468 977.677 525.679 977.677C538.89 977.677 544.505 973.586 544.505 973.586C544.505 973.586 530.854 946.063 530.854 915.458C530.854 889.781 538.502 876.133 540.967 872.401" fill="#EFECDF"/><g id="Group 10"><mask id="mask12_122_145722238c05e-a418-43ed-a2cb-99f3fc5284c6" style="mask-type:alpha" maskUnits="userSpaceOnUse" x="450" y="964" width="151" height="24" fill="#ffffff"><path id="Clip 9" fill-rule="evenodd" clip-rule="evenodd" d="M450.375 964.037H600.981V987.586H450.375V964.037Z" fill="#ffffff"/></mask><g mask="url(#mask12_122_145722238c05e-a418-43ed-a2cb-99f3fc5284c6)"><path id="Fill 8" fill-rule="evenodd" clip-rule="evenodd" d="M540.477 964.037C542.737 970.016 544.504 973.586 544.504 973.586C544.504 973.586 538.889 977.678 525.678 977.678C512.467 977.678 506.853 973.586 506.853 973.586C506.853 973.586 508.456 970.026 510.505 964.048C476.19 965.156 450.375 969.95 450.375 975.696C450.375 982.263 484.09 987.586 525.678 987.586C567.267 987.586 600.981 982.263 600.981 975.696C600.981 969.93 574.978 965.123 540.477 964.037" fill="#EFECDF"/></g></g><g id="Group 13"><mask id="mask13_122_145722238c05e-a418-43ed-a2cb-99f3fc5284c6" style="mask-type:alpha" maskUnits="userSpaceOnUse" x="429" y="358" width="231" height="435" fill="#ffffff"><path id="Clip 12" fill-rule="evenodd" clip-rule="evenodd" d="M429.44 358.135H659.659V792.137H429.44V358.135Z" fill="#ffffff"/></mask><g mask="url(#mask13_122_145722238c05e-a418-43ed-a2cb-99f3fc5284c6)"><path id="Fill 11" fill-rule="evenodd" clip-rule="evenodd" d="M485.66 358.135C461.676 358.416 442.354 376.432 429.44 403.259C429.45 403.241 450.974 365.303 490.999 373.936C524.687 381.202 544.377 425.1 546.485 474.009C551.439 588.945 567.953 635.514 581.164 678.118C602.166 745.849 653.824 792.137 653.824 792.137H659.659C560.577 691.22 559.586 511.224 555.732 473.239C552.718 443.518 542.953 361.702 485.66 358.135" fill="#D8D2BA"/></g></g><path id="Fill 14" fill-rule="evenodd" clip-rule="evenodd" d="M540.602 872.439C535.753 873.004 530.779 873.31 525.677 873.31C520.785 873.31 515.712 873.021 510.521 872.42C511.437 874.021 513.161 877.429 514.831 882.83C516.159 883.009 517.521 883.109 518.913 883.109C528.377 883.109 536.574 878.771 540.602 872.439" fill="#16494C"/></g></g><g id="Chair_2"><g id="Group 13_2"><g id="Group 3"><mask id="mask14_122_145722238c05e-a418-43ed-a2cb-99f3fc5284c6" style="mask-type:alpha" maskUnits="userSpaceOnUse" x="1011" y="298" width="397" height="690" fill="#ffffff"><path id="Clip 2" fill-rule="evenodd" clip-rule="evenodd" d="M1408 298.439H1011.66V987.168H1408V298.439Z" fill="#ffffff"/></mask><g mask="url(#mask14_122_145722238c05e-a418-43ed-a2cb-99f3fc5284c6)"><path id="Fill 1_3" fill-rule="evenodd" clip-rule="evenodd" d="M1153.25 298.439C1250.36 298.439 1349.44 359.386 1397.99 586.876C1450.62 833.477 1278.62 987.168 1278.62 987.168H1078.1C1078.1 987.168 1002.65 865.297 1012.56 737.48C1017.45 674.42 1071.02 611.668 1081.92 533.372C1095.06 438.942 1061.94 298.439 1153.25 298.439" fill="#F0ECDF"/></g></g><path id="Fill 4" fill-rule="evenodd" clip-rule="evenodd" d="M1297.92 588.858C1297.92 759.62 1169.8 791.719 1169.8 791.719H1046.25C1046.25 791.719 1023.57 779.919 1012.1 744.643C1012.23 742.257 1012.37 739.871 1012.56 737.48C1017.45 674.42 1071.02 611.669 1081.92 533.372C1095.06 438.942 1061.94 298.439 1153.25 298.439C1153.25 298.439 1297.92 315.39 1297.92 588.858" fill="#B2AC9B"/><path id="Fill 6_3" fill-rule="evenodd" clip-rule="evenodd" d="M1046.25 791.719C1046.25 791.719 1023.57 779.919 1012.1 744.644C1012.23 742.258 1012.37 739.871 1012.56 737.481C1017.45 674.421 1071.02 611.668 1081.92 533.371C1095.06 438.942 1061.93 298.439 1153.25 298.439C1153.25 298.439 1214.93 305.674 1257.73 386.817C1257.26 386.176 1187.4 292.379 1127.49 323.977C1081.5 348.236 1111.66 443.993 1095.84 538.245C1081.92 621.225 1054.17 649.619 1033.04 701.812C1006.79 766.615 1046.25 791.719 1046.25 791.719" fill="#D8D2BA"/><g id="Group 10_2"><mask id="mask15_122_145722238c05e-a418-43ed-a2cb-99f3fc5284c6" style="mask-type:alpha" maskUnits="userSpaceOnUse" x="1012" y="298" width="247" height="494" fill="#ffffff"><path id="Clip 9_2" fill-rule="evenodd" clip-rule="evenodd" d="M1258.17 298H1012.01V791.719H1258.17V298Z" fill="#ffffff"/></mask><g mask="url(#mask15_122_145722238c05e-a418-43ed-a2cb-99f3fc5284c6)"><path id="Fill 8_2" fill-rule="evenodd" clip-rule="evenodd" d="M1046.25 791.719C1043.45 789.773 1040.97 787.404 1038.73 784.851C1036.49 782.293 1034.48 779.527 1032.75 776.601C1029.29 770.744 1026.85 764.292 1025.53 757.624L1025.05 755.119L1024.7 752.593L1024.53 751.329L1024.43 750.058L1024.23 747.517C1024.19 745.818 1024.09 744.118 1024.13 742.419C1024.2 740.721 1024.17 739.018 1024.35 737.325C1024.84 730.542 1026.11 723.83 1027.91 717.278C1028.79 713.991 1029.89 710.772 1030.99 707.556L1032.81 702.793C1033.41 701.201 1034.12 699.656 1034.77 698.084C1036.1 694.952 1037.42 691.815 1038.87 688.74C1040.29 685.646 1041.7 682.553 1043.22 679.509C1049.16 667.265 1055.64 655.288 1061.76 643.122C1067.89 630.968 1073.57 618.563 1078.35 605.803C1083.16 593.052 1087.08 579.984 1090.35 566.759C1091.8 560.104 1093.43 553.486 1094.56 546.768C1095.17 543.416 1095.85 540.078 1096.39 536.716C1096.94 533.355 1097.44 529.983 1097.87 526.605C1099.65 513.093 1100.56 499.485 1101.01 485.873C1101.45 472.258 1101.39 458.636 1101.19 445.024C1101 431.41 1100.65 417.801 1100.73 404.197C1100.85 390.609 1101.28 376.954 1103.69 363.584C1104.92 356.922 1106.68 350.321 1109.53 344.18C1112.35 338.054 1116.39 332.43 1121.68 328.244C1124.32 326.135 1127.26 324.468 1130.33 323.039C1133.4 321.633 1136.59 320.488 1139.86 319.645C1146.4 317.926 1153.25 317.558 1159.97 318.236C1166.7 318.9 1173.31 320.652 1179.63 323.063C1185.97 325.462 1192.03 328.565 1197.85 332.047C1209.48 339.058 1220.1 347.644 1229.99 356.952C1234.93 361.615 1239.68 366.479 1244.25 371.506C1248.81 376.538 1253.24 381.717 1257.34 387.109L1258.17 386.587C1252.66 376.142 1246.38 366.097 1239.26 356.665C1235.76 351.909 1231.91 347.416 1227.99 343.001C1223.97 338.67 1219.82 334.46 1215.41 330.526C1210.99 326.605 1206.38 322.888 1201.58 319.45C1196.76 316.02 1191.73 312.89 1186.54 310.07C1181.35 307.247 1175.96 304.764 1170.42 302.7C1167.65 301.656 1164.84 300.723 1161.99 299.925C1159.14 299.127 1156.27 298.428 1153.3 298.003L1153.28 298H1153.25C1148.08 298.016 1142.89 298.467 1137.82 299.549C1132.75 300.613 1127.81 302.38 1123.25 304.871C1118.7 307.364 1114.52 310.542 1110.96 314.324C1107.4 318.099 1104.39 322.369 1101.89 326.895C1096.87 335.976 1093.82 345.969 1091.61 356.03C1089.43 366.12 1088.19 376.379 1087.33 386.646C1085.66 407.197 1085.6 427.816 1085.47 448.401C1085.35 468.987 1085.31 489.586 1083.94 510.121C1083.21 520.38 1082.21 530.634 1080.45 540.763C1078.67 550.892 1076.19 560.891 1073.19 570.727C1067.19 590.416 1059.14 609.409 1050.65 628.153C1042.17 646.907 1033.21 665.471 1025.75 684.684C1022.06 694.297 1018.76 704.077 1016.3 714.085L1015.44 717.853L1015.02 719.737L1014.66 721.635L1013.95 725.433L1013.39 729.255C1012.96 731.797 1012.79 734.371 1012.52 736.932C1012.31 739.498 1012.18 742.071 1012.01 744.639L1012.01 744.656L1012.02 744.67C1012.87 746.992 1013.66 749.342 1014.57 751.641L1016.04 755.051L1016.77 756.756L1017.6 758.416L1019.27 761.733C1019.84 762.828 1020.49 763.882 1021.1 764.958C1022.28 767.134 1023.73 769.147 1025.07 771.227C1027.95 775.255 1031.1 779.086 1034.62 782.57C1038.14 786.031 1041.95 789.253 1046.25 791.719M1046.25 791.719C1041.96 789.24 1038.16 786.008 1034.65 782.539C1031.14 779.047 1028 775.21 1025.14 771.178C1023.81 769.095 1022.37 767.081 1021.19 764.904C1020.59 763.827 1019.94 762.773 1019.37 761.678L1017.72 758.361L1016.89 756.699L1016.16 754.994L1014.71 751.585C1013.8 749.287 1013.03 746.938 1012.18 744.617L1012.18 744.648C1012.36 742.081 1012.5 739.511 1012.71 736.948C1012.99 734.392 1013.17 731.823 1013.6 729.285L1014.17 725.471L1014.89 721.681L1015.26 719.786L1015.69 717.906L1016.55 714.147C1019.04 704.161 1022.36 694.403 1026.08 684.81C1033.57 665.635 1042.61 647.115 1051.12 628.363C1059.63 609.621 1067.71 590.615 1073.74 570.894C1076.75 561.041 1079.25 551.022 1081.04 540.866C1082.82 530.707 1083.83 520.439 1084.57 510.165C1085.96 489.602 1086.02 468.99 1086.16 448.405C1086.31 427.822 1086.4 407.215 1088.08 386.707C1088.95 376.464 1090.2 366.237 1092.38 356.197C1094.58 346.186 1097.63 336.263 1102.6 327.29C1105.09 322.819 1108.05 318.61 1111.56 314.898C1115.07 311.178 1119.18 308.061 1123.66 305.615C1128.14 303.172 1133 301.437 1138 300.393C1143 299.33 1148.13 298.889 1153.25 298.878L1153.2 298.875C1156.06 299.287 1158.94 299.987 1161.75 300.779C1164.58 301.572 1167.36 302.499 1170.11 303.539C1175.61 305.593 1180.95 308.064 1186.1 310.872C1191.26 313.679 1196.26 316.794 1201.04 320.209C1205.81 323.63 1210.38 327.329 1214.78 331.232C1219.16 335.148 1223.28 339.339 1227.27 343.652C1231.17 348.047 1234.99 352.521 1238.48 357.257C1245.54 366.654 1251.8 376.65 1257.3 387.045L1258.13 386.524C1253.98 381.085 1249.55 375.909 1244.96 370.86C1240.37 365.819 1235.6 360.944 1230.64 356.268C1220.7 346.935 1210.02 338.321 1198.31 331.277C1192.45 327.777 1186.34 324.657 1179.94 322.241C1173.56 319.815 1166.88 318.048 1160.06 317.381C1153.25 316.7 1146.29 317.08 1139.65 318.832C1136.33 319.693 1133.09 320.859 1129.98 322.288C1126.88 323.735 1123.86 325.448 1121.18 327.603C1115.77 331.885 1111.66 337.631 1108.81 343.845C1105.93 350.074 1104.16 356.738 1102.92 363.444C1100.51 376.902 1100.1 390.585 1099.99 404.192C1099.93 417.814 1100.29 431.425 1100.49 445.034C1100.71 458.642 1100.78 472.253 1100.36 485.853C1099.92 499.448 1099.02 513.037 1097.26 526.526C1096.83 529.899 1096.35 533.264 1095.8 536.619C1095.26 539.976 1094.58 543.311 1093.98 546.657C1092.85 553.368 1091.23 559.978 1089.79 566.624C1086.54 579.831 1082.64 592.882 1077.86 605.615C1073.1 618.362 1067.42 630.742 1061.33 642.909C1055.26 655.084 1048.81 667.083 1042.9 679.354C1041.39 682.405 1039.98 685.504 1038.58 688.605C1037.13 691.686 1035.82 694.831 1034.5 697.97C1033.85 699.544 1033.14 701.093 1032.55 702.689L1030.74 707.466C1029.64 710.692 1028.55 713.919 1027.68 717.215C1025.89 723.785 1024.64 730.515 1024.17 737.314C1024 739.009 1024.03 740.716 1023.97 742.417C1023.93 744.12 1024.03 745.823 1024.08 747.525L1024.29 750.072L1024.4 751.344L1024.57 752.61L1024.92 755.14L1025.41 757.648C1026.76 764.324 1029.22 770.78 1032.7 776.631C1034.44 779.555 1036.45 782.318 1038.71 784.87C1040.96 787.418 1043.45 789.782 1046.25 791.719" fill="#D8D2BA"/></g></g><path id="Fill 11_2" fill-rule="evenodd" clip-rule="evenodd" d="M1093.37 765.224C1093.37 765.224 1139.61 687.72 1152.37 579.39C1163.02 489.015 1137.4 386.831 1203.46 377.482C1254.37 370.276 1277.62 435.226 1277.71 435.486C1277.71 435.49 1277.71 435.495 1277.72 435.498C1279.52 442 1281.93 450.862 1284.76 461.333C1292.91 495.995 1297.92 537.985 1297.92 588.858C1297.92 759.62 1169.8 791.719 1169.8 791.719H1046.25C1046.25 791.719 1046.47 765.224 1093.37 765.224" fill="#36B2B2"/></g></g><g id="Master/Female Character/Sitting" transform="matrix(-1 0 0 1 1366 -23) scale(1 1)"><g id="Master/Female Character/Sitting"><g id="Female Lower Sitting" transform="translate(145 665) scale(1 1)"><g id="Female Lower Sitting/Relaxed 1"><g id="Group 46"><g id="Group 3"><mask id="mask0_122_218729863820b-1407-4cf9-a0a8-43b369ac8e44" style="mask-type:alpha" maskUnits="userSpaceOnUse" x="119" y="150" width="107" height="195" fill="#ffffff"><path id="Clip 2" fill-rule="evenodd" clip-rule="evenodd" d="M119.438 150.074H225.36V344.858H119.438V150.074Z" fill="#ffffff"/></mask><g mask="url(#mask0_122_218729863820b-1407-4cf9-a0a8-43b369ac8e44)"><path id="Fill 1" fill-rule="evenodd" clip-rule="evenodd" d="M123.31 301.415C159.127 230.983 163.904 175.055 187.385 150.074L225.36 163.226C225.36 163.226 156.234 278.818 152.261 297.537C148.155 316.883 169.595 325.415 177.508 331.909C183.975 337.216 184.677 340.528 184.346 341.265C183.808 342.463 182.871 344.189 181.819 344.491C177.014 345.87 169.529 343.177 161.089 339.5C150.536 334.902 119.438 311.736 119.438 311.736L123.31 301.415Z" fill="#035A63"/></g></g><g id="Group 6"><mask id="mask1_122_218729863820b-1407-4cf9-a0a8-43b369ac8e44" style="mask-type:alpha" maskUnits="userSpaceOnUse" x="119" y="307" width="66" height="38" fill="#ffffff"><path id="Clip 5" fill-rule="evenodd" clip-rule="evenodd" d="M119.438 307.264H184.345V344.858H119.438V307.264Z" fill="#ffffff"/></mask><g mask="url(#mask1_122_218729863820b-1407-4cf9-a0a8-43b369ac8e44)"><path id="Fill 4" fill-rule="evenodd" clip-rule="evenodd" d="M161.089 339.5C150.536 334.902 119.438 311.736 119.438 311.736L121.115 307.264C121.115 307.264 152.682 330.745 163.582 335.494C174.483 340.244 184.345 341.265 184.345 341.265C183.808 342.463 182.87 344.189 181.819 344.491C177.014 345.87 169.529 343.177 161.089 339.5" fill="#16494C"/></g></g><path id="Fill 7" fill-rule="evenodd" clip-rule="evenodd" d="M152.019 306.471C151.071 305.276 150.02 304.313 148.849 303.615C148.308 303.216 147.653 302.996 147.091 302.694C146.772 302.598 146.465 302.493 146.162 302.389L145.71 302.232L145.23 302.141C142.718 301.598 140.086 301.763 137.419 302.245C136.753 302.35 136.087 302.563 135.419 302.71C134.748 302.866 134.07 302.979 133.406 303.222C132.736 303.428 132.068 303.644 131.385 303.831L130.364 304.123L129.355 304.486C128.68 304.725 127.997 304.954 127.305 305.174C126.611 305.388 125.91 305.598 125.229 305.868C123.838 306.345 122.444 306.838 120.936 307.186C121.979 306.079 123.137 305.117 124.298 304.138C124.875 303.643 125.498 303.221 126.139 302.818C126.774 302.407 127.418 302.006 128.07 301.616L129.051 301.033C129.392 300.862 129.745 300.712 130.092 300.55C130.786 300.225 131.496 299.93 132.202 299.624C132.895 299.292 133.666 299.12 134.411 298.89C135.17 298.698 135.909 298.452 136.689 298.314C139.782 297.749 143.213 297.821 146.28 299.188C146.471 299.269 146.664 299.342 146.849 299.435L147.384 299.768C147.738 299.991 148.089 300.212 148.428 300.443C149.048 301.004 149.7 301.504 150.174 302.179C151.17 303.451 151.888 304.932 152.019 306.471" fill="#16494C"/><g id="Group 11"><mask id="mask2_122_218729863820b-1407-4cf9-a0a8-43b369ac8e44" style="mask-type:alpha" maskUnits="userSpaceOnUse" x="247" y="154" width="118" height="191" fill="#ffffff"><path id="Clip 10" fill-rule="evenodd" clip-rule="evenodd" d="M247.84 154.422H364.337V344.589H247.84V154.422Z" fill="#ffffff"/></mask><g mask="url(#mask2_122_218729863820b-1407-4cf9-a0a8-43b369ac8e44)"><path id="Fill 9" fill-rule="evenodd" clip-rule="evenodd" d="M291.415 334.131C275.108 257.48 242 209.372 248.73 154.422L281.63 157.756C281.63 157.756 302.775 295.849 311.47 312.896C320.456 330.514 342.487 323.648 352.724 323.713C361.09 323.767 363.719 325.899 363.926 326.68C364.262 327.949 364.62 329.881 363.992 330.777C361.127 334.873 353.616 337.492 344.743 339.947C333.648 343.016 294.902 344.589 294.902 344.589L291.415 334.131Z" fill="#035A63"/></g></g><g id="Group 14"><mask id="mask3_122_218729863820b-1407-4cf9-a0a8-43b369ac8e44" style="mask-type:alpha" maskUnits="userSpaceOnUse" x="293" y="326" width="72" height="19" fill="#ffffff"><path id="Clip 13" fill-rule="evenodd" clip-rule="evenodd" d="M293.391 326.68H364.337V344.589H293.391V326.68Z" fill="#ffffff"/></mask><g mask="url(#mask3_122_218729863820b-1407-4cf9-a0a8-43b369ac8e44)"><path id="Fill 12" fill-rule="evenodd" clip-rule="evenodd" d="M344.743 339.947C333.648 343.016 294.902 344.589 294.902 344.589L293.391 340.058C293.391 340.058 332.7 338.435 344.159 335.265C355.619 332.095 363.927 326.68 363.927 326.68C364.263 327.949 364.62 329.881 363.993 330.778C361.127 334.873 353.616 337.492 344.743 339.947" fill="#16494C"/></g></g><path id="Fill 15" fill-rule="evenodd" clip-rule="evenodd" d="M316.905 319.99C315.416 319.658 313.993 319.572 312.644 319.766C311.973 319.796 311.325 320.037 310.698 320.157C310.39 320.283 310.086 320.395 309.784 320.505L309.334 320.667L308.905 320.899C306.61 322.058 304.67 323.843 302.901 325.895C302.449 326.397 302.065 326.981 301.639 327.516C301.215 328.059 300.759 328.574 300.397 329.181C300.005 329.762 299.623 330.351 299.21 330.926L298.6 331.796L298.044 332.713C297.671 333.324 297.284 333.931 296.884 334.538C296.48 335.141 296.067 335.746 295.708 336.383C294.927 337.629 294.155 338.89 293.201 340.11C293.316 338.593 293.61 337.117 293.896 335.626C294.033 334.878 294.251 334.157 294.495 333.441C294.73 332.722 294.978 332.005 295.239 331.291L295.635 330.221C295.793 329.873 295.971 329.535 296.139 329.191C296.474 328.501 296.841 327.825 297.197 327.143C297.526 326.448 298.017 325.83 298.451 325.182C298.92 324.554 299.34 323.899 299.858 323.301C301.906 320.915 304.617 318.811 307.862 317.943C308.061 317.886 308.257 317.821 308.459 317.777L309.085 317.699C309.5 317.649 309.911 317.6 310.321 317.567C311.155 317.612 311.976 317.59 312.77 317.816C314.345 318.178 315.835 318.877 316.905 319.99" fill="#16494C"/><path id="Fill 17" fill-rule="evenodd" clip-rule="evenodd" d="M104.938 67.3562C104.938 67.3562 81.9696 119.943 130.921 150.097L248.731 154.422L277.029 120.154C277.029 120.154 195.345 64.1002 104.938 67.3562" fill="#035A63"/><path id="Fill 19" fill-rule="evenodd" clip-rule="evenodd" d="M283.744 171.041C283.744 171.041 287.572 169.88 288.9 165.058C290.406 159.592 288.023 156.707 288.023 156.707C288.023 156.707 290.632 153.666 290.632 149.105C290.632 143.974 287.534 141.829 287.534 141.829C287.534 141.829 290.408 138.174 289.042 134.007C287.413 129.039 283.381 128.282 283.381 128.282C283.381 128.282 283.136 122.173 280.114 119.564C276.843 116.741 272.385 117.368 272.385 117.368L248.73 154.423L283.744 171.041Z" fill="#FDCF3C"/><path id="Fill 21" fill-rule="evenodd" clip-rule="evenodd" d="M248.73 154.422C251.119 151.583 253.748 149.062 256.449 146.636C259.16 144.223 261.965 141.936 264.851 139.755C267.736 137.574 270.707 135.505 273.771 133.561C276.844 131.629 279.991 129.795 283.38 128.281C280.994 131.125 278.366 133.647 275.665 136.072C272.954 138.484 270.148 140.772 267.259 142.948C264.37 145.124 261.4 147.193 258.336 149.138C255.262 151.069 252.116 152.904 248.73 154.422" fill="#FCAE3D"/><path id="Fill 23" fill-rule="evenodd" clip-rule="evenodd" d="M248.73 154.422C251.708 152.585 254.809 151.127 257.947 149.783C261.09 148.455 264.282 147.275 267.515 146.224C270.748 145.171 274.023 144.252 277.348 143.481C280.677 142.725 284.043 142.086 287.534 141.829C284.558 143.671 281.457 145.13 278.318 146.473C275.175 147.801 271.984 148.981 268.749 150.027C265.515 151.074 262.239 151.994 258.915 152.764C255.585 153.519 252.219 154.16 248.73 154.422" fill="#FCAE3D"/><path id="Fill 25" fill-rule="evenodd" clip-rule="evenodd" d="M248.73 154.422C252.052 153.786 255.352 153.547 258.644 153.428C261.936 153.326 265.218 153.38 268.492 153.568C271.767 153.755 275.033 154.083 278.291 154.566C281.547 155.064 284.797 155.685 288.023 156.707C284.7 157.348 281.4 157.588 278.108 157.705C274.817 157.807 271.535 157.754 268.26 157.56C264.986 157.368 261.72 157.041 258.462 156.558C255.206 156.058 251.956 155.439 248.73 154.422" fill="#FCAE3D"/><path id="Fill 27" fill-rule="evenodd" clip-rule="evenodd" d="M222.363 168.308C222.363 168.308 226.85 165.65 227.519 161.325C228.39 155.699 226.68 152.359 226.68 152.359C226.68 152.359 229.289 149.319 229.289 144.758C229.289 139.626 226.191 137.482 226.191 137.482C226.191 137.482 229.065 133.827 227.699 129.659C226.07 124.691 222.037 123.934 222.037 123.934C222.037 123.934 221.793 117.826 218.771 115.217C215.5 112.393 211.042 113.02 211.042 113.02L187.387 150.075L222.363 168.308Z" fill="#FDCF3C"/><path id="Fill 29" fill-rule="evenodd" clip-rule="evenodd" d="M20.735 67.4156C19.905 52.4676 39.227 20.8626 39.227 20.8626C39.227 20.8626 54.145 6.0006 86.141 6.0006C111.484 6.0006 130.237 20.7946 130.237 20.7946C130.237 20.7946 145.366 46.4586 145.366 68.1006C145.366 68.1006 139.392 99.7976 91.058 135.138C91.058 135.138 63.34 84.9206 20.735 67.4156" fill="#035A63"/><path id="Fill 31" fill-rule="evenodd" clip-rule="evenodd" d="M21.7374 67.3265C19.2794 67.3765 17.1674 65.6235 17.0094 63.1695C16.8514 60.7165 18.7134 58.6485 21.1664 58.4415C56.1004 55.4905 93.2404 66.5345 108.492 75.7915C84.1184 69.7255 60.6614 66.5345 21.7374 67.3265" fill="#FDCF3C"/><path id="Fill 33" fill-rule="evenodd" clip-rule="evenodd" d="M145.305 65.1211C146.005 63.2691 148.073 62.3351 149.925 63.0341C151.776 63.7341 152.711 65.8001 152.011 67.6541C140.149 99.0621 120.628 117.052 106.816 122.696C117.95 110.379 134.119 94.7411 145.305 65.1211" fill="#FDCF3C"/><g id="Group 37"><mask id="mask4_122_218729863820b-1407-4cf9-a0a8-43b369ac8e44" style="mask-type:alpha" maskUnits="userSpaceOnUse" x="17" y="66" width="195" height="85" fill="#ffffff"><path id="Clip 36" fill-rule="evenodd" clip-rule="evenodd" d="M17 66.6334H211.08V150.098H17V66.6334Z" fill="#ffffff"/></mask><g mask="url(#mask4_122_218729863820b-1407-4cf9-a0a8-43b369ac8e44)"><path id="Fill 35" fill-rule="evenodd" clip-rule="evenodd" d="M20.7358 67.4156C20.7358 67.4156 -3.08517 134.484 69.5758 150.098L187.386 150.075L211.08 112.948C211.08 112.948 106.75 59.5986 20.7358 67.4156" fill="#035A63"/></g></g><path id="Fill 38" fill-rule="evenodd" clip-rule="evenodd" d="M187.387 150.074C189.776 147.235 192.405 144.714 195.106 142.288C197.817 139.875 200.622 137.588 203.508 135.407C206.394 133.227 209.364 131.157 212.428 129.213C215.501 127.281 218.648 125.447 222.037 123.933C219.652 126.777 217.024 129.299 214.322 131.724C211.611 134.136 208.806 136.424 205.916 138.6C203.028 140.777 200.057 142.846 196.993 144.79C193.919 146.721 190.773 148.556 187.387 150.074" fill="#FCAE3D"/><path id="Fill 40" fill-rule="evenodd" clip-rule="evenodd" d="M187.387 150.074C190.365 148.238 193.466 146.78 196.604 145.435C199.747 144.107 202.939 142.928 206.172 141.876C209.405 140.824 212.68 139.904 216.005 139.134C219.334 138.378 222.7 137.738 226.191 137.481C223.215 139.323 220.114 140.782 216.975 142.125C213.832 143.453 210.641 144.633 207.406 145.679C204.172 146.726 200.896 147.646 197.572 148.417C194.242 149.171 190.876 149.812 187.387 150.074" fill="#FCAE3D"/><path id="Fill 42" fill-rule="evenodd" clip-rule="evenodd" d="M187.387 150.074C190.709 149.438 194.009 149.2 197.301 149.081C200.593 148.978 203.875 149.032 207.15 149.22C210.424 149.407 213.691 149.735 216.948 150.218C220.204 150.716 223.454 151.337 226.68 152.359C223.357 153 220.058 153.24 216.765 153.358C213.474 153.46 210.192 153.406 206.917 153.213C203.643 153.02 200.377 152.693 197.119 152.21C193.863 151.71 190.614 151.091 187.387 150.074" fill="#FCAE3D"/><path id="Fill 44" fill-rule="evenodd" clip-rule="evenodd" d="M211.04 113.02C195.909 106.537 180.546 100.768 164.991 95.5875C161.082 94.3505 157.179 93.1035 153.288 91.8255L141.513 88.3055L129.682 84.9885C125.73 83.9145 121.748 82.9545 117.783 81.9325C109.839 79.9445 101.856 78.1135 93.831 76.4855C85.818 74.7965 77.753 73.3725 69.667 72.0795C53.484 69.5625 37.171 67.8165 20.709 67.4905C37.132 66.1485 53.717 67.0315 70.094 68.9875C74.186 69.5175 78.298 69.9485 82.359 70.6805C86.426 71.3745 90.521 71.9375 94.563 72.7695C102.675 74.2975 110.728 76.1135 118.749 78.0525C122.737 79.1135 126.741 80.1105 130.714 81.2235C134.674 82.3815 138.651 83.4795 142.596 84.6865L154.368 88.5005C158.265 89.8555 162.145 91.2535 166.023 92.6545C181.473 98.4205 196.63 105.046 211.04 113.02" fill="#16494C"/></g></g></g><g id="Female Upper" transform="translate(-4 162) scale(1 1)"><g id="Female Upper/Thumbs Up 2"><g id="Group 54"><path id="Fill 1" fill-rule="evenodd" clip-rule="evenodd" d="M188.385 523.329H279.376V498.836H188.385V523.329Z" fill="#16494C"/><g id="Group 53"><path id="Fill 2" fill-rule="evenodd" clip-rule="evenodd" d="M408.458 384.37L386.619 376.573L359.427 457.765C356.677 453.232 309.181 375.24 296.442 372.551L296.148 388.679L296.128 372.551L274.722 365.873L244.49 508.206L192.138 363.93L154.627 371.551C154.627 371.551 163.83 378.521 165.379 394.429C163.768 387.732 159.664 380.714 151.355 373.829C135.208 382.175 79.753 490.646 79.753 490.646L72.764 505.792L69.916 522.097L70.449 637.27L93.699 637.297L101.7 515.523C136.033 468.375 160.362 423.417 160.362 423.417C160.725 422.624 161.101 421.791 161.48 420.927C161.19 421.75 160.902 422.571 160.577 423.417L189.02 509.081H244.304H244.807H279.507L295.189 445.083C295.189 445.083 302.099 439.878 304.829 433.188C312.938 446.925 326.141 467.569 343.385 488.647L361.375 496.575L379.347 487.556L408.458 384.37Z" fill="#035A63"/><path id="Fill 4" fill-rule="evenodd" clip-rule="evenodd" d="M191.504 363.686L244.173 508.837L274.611 365.533L259.074 362.791C253.325 358.648 241.983 354.592 233.392 354.592C222.716 354.592 217.769 356.066 208.816 360.073L191.504 363.686Z" fill="#FCE9D4"/><g id="Group 8"><mask id="mask0_122_22313d8f980a5-8a0c-46fb-a023-bca38c32fb48" style="mask-type:alpha" maskUnits="userSpaceOnUse" x="65" y="643" width="38" height="32" fill="#ffffff"><path id="Clip 7" fill-rule="evenodd" clip-rule="evenodd" d="M65 643.319H102.225V674.03H65V643.319Z" fill="#ffffff"/></mask><g mask="url(#mask0_122_22313d8f980a5-8a0c-46fb-a023-bca38c32fb48)"><path id="Fill 6" fill-rule="evenodd" clip-rule="evenodd" d="M68.847 643.319C67.248 646.357 65 658.353 65 665.517C65 668.474 66.025 671.436 68.119 671.67C70.379 671.924 70.393 670.332 72.5 670.5C74.145 670.632 73.935 673.23 76.421 673.392C79.16 673.571 79.525 671.098 80.72 671.123C82.743 671.165 82.487 674.022 85.233 673.96C88.393 673.887 87.716 671.502 89.823 671.628C91.086 671.704 90.835 674.03 93.363 674.03C95.892 674.03 96.819 671.774 96.903 669.943C96.988 668.111 96.735 664.358 96.313 661.767C95.892 659.175 102.225 659.828 102.225 653.338C102.225 646.848 94.374 643.319 94.374 643.319H68.847Z" fill="#16494C"/></g></g><path id="Fill 9" fill-rule="evenodd" clip-rule="evenodd" d="M94.4002 650.757C94.6862 651.598 94.7982 652.516 94.7632 653.401C94.7382 654.265 94.7652 655.07 94.8512 655.922C94.9152 656.775 95.0282 657.573 95.2022 658.419C95.3912 659.284 95.4382 660.209 95.3022 661.086C95.0202 660.23 94.7722 659.432 94.4522 658.632C94.1172 657.813 93.9362 656.889 93.8552 656.008C93.7832 655.127 93.8022 654.186 93.9902 653.321C94.1672 652.478 94.2722 651.649 94.4002 650.757" fill="#CADBDA"/><path id="Fill 11" fill-rule="evenodd" clip-rule="evenodd" d="M79.1167 490.401C79.1167 490.401 74.4757 490.482 72.7447 493.659C71.0127 496.835 72.7637 500.012 72.7637 500.012C72.7637 500.012 68.4867 501.247 67.6327 504.084C66.4727 507.938 68.9357 510.926 68.9357 510.926C68.9357 510.926 66.4727 513.091 66.4727 516.79C66.4727 520.49 69.6477 521.852 69.6477 521.852C71.4087 522.183 100.763 525.476 100.763 525.476C100.763 525.476 102.963 525.079 103.939 521.852C104.792 519.033 103.836 517.089 103.836 517.089C103.836 517.089 105.204 515.981 105.681 514.098C106.157 512.215 105.324 510.074 105.324 510.074L79.1167 490.401Z" fill="#FDCF3C"/><path id="Fill 13" fill-rule="evenodd" clip-rule="evenodd" d="M103.836 517.089C100.948 516.21 98.2017 515.071 95.5057 513.842C92.8017 512.628 90.1697 511.283 87.5777 509.865C84.9887 508.44 82.4427 506.938 79.9677 505.307C77.4847 503.691 75.0527 501.982 72.7637 500.012C75.6537 500.888 78.4007 502.025 81.0957 503.255C83.7997 504.47 86.4317 505.815 89.0217 507.236C91.6087 508.665 94.1547 510.166 96.6297 511.798C99.1127 513.414 101.546 515.122 103.836 517.089" fill="#FCAE3D"/><path id="Fill 15" fill-rule="evenodd" clip-rule="evenodd" d="M103.836 517.089C100.82 517.187 97.8545 516.993 94.9075 516.697C91.9575 516.418 89.0345 515.992 86.1245 515.484C83.2165 514.969 80.3235 514.367 77.4565 513.619C74.5865 512.889 71.7355 512.054 68.9355 510.926C71.9525 510.825 74.9175 511.017 77.8645 511.314C80.8135 511.594 83.7375 512.019 86.6465 512.531C89.5535 513.05 92.4465 513.651 95.3135 514.4C98.1835 515.131 101.036 515.964 103.836 517.089" fill="#FCAE3D"/><path id="Fill 17" fill-rule="evenodd" clip-rule="evenodd" d="M93.5021 644.318H69.4201C67.4221 644.318 65.7871 642.683 65.7871 640.685V640.685C65.7871 638.687 67.4221 637.052 69.4201 637.052H93.5021C95.5001 637.052 97.1351 638.687 97.1351 640.685V640.685C97.1351 642.683 95.5001 644.318 93.5021 644.318" fill="#FDCF3C"/><path id="Fill 19" fill-rule="evenodd" clip-rule="evenodd" d="M379.496 487.061C379.496 487.061 374.387 498.673 359.777 498.731C347.664 498.78 343.252 488.403 343.252 488.403L359.423 457.78L379.496 487.061Z" fill="#FDCF3C"/><path id="Fill 21" fill-rule="evenodd" clip-rule="evenodd" d="M359.424 457.733C359.624 461.167 359.531 464.565 359.335 467.95C359.156 471.337 358.829 474.706 358.419 478.065C358.002 481.422 357.497 484.769 356.846 488.098C356.212 491.429 355.473 494.747 354.438 498.028C354.234 494.593 354.325 491.195 354.523 487.811C354.702 484.423 355.029 481.054 355.443 477.696C355.864 474.339 356.368 470.992 357.02 467.664C357.655 464.333 358.393 461.015 359.424 457.733" fill="#FCAE3D"/><path id="Fill 23" fill-rule="evenodd" clip-rule="evenodd" d="M359.424 457.733C360.826 460.821 361.94 463.98 362.954 467.164C363.985 470.343 364.87 473.559 365.675 476.794C366.473 480.032 367.185 483.29 367.754 486.584C368.34 489.873 368.822 493.188 369.015 496.575C367.61 493.488 366.494 490.329 365.481 487.145C364.451 483.965 363.565 480.75 362.764 477.513C361.97 474.275 361.257 471.017 360.69 467.723C360.105 464.433 359.621 461.119 359.424 457.733" fill="#FCAE3D"/><path id="Fill 25" fill-rule="evenodd" clip-rule="evenodd" d="M256.215 516.083C256.215 521.55 250.863 525.982 244.261 525.982C237.659 525.982 232.307 521.55 232.307 516.083C232.307 510.616 237.659 506.184 244.261 506.184C250.863 506.184 256.215 510.616 256.215 516.083" fill="#FDCF3C"/><path id="Fill 27" fill-rule="evenodd" clip-rule="evenodd" d="M159.942 423.172C166.936 385.599 152.302 375.12 151.412 374.362C149.734 372.935 149.52 370.414 150.941 368.73C152.362 367.047 154.871 366.825 156.56 368.239C156.835 368.469 165.321 373.332 167.92 384.355C171.559 399.791 168.656 411.296 159.942 423.172" fill="#FDCF3C"/><path id="Fill 29" fill-rule="evenodd" clip-rule="evenodd" d="M295.057 444.838C295.057 444.838 305.791 436.761 305.791 427.794C305.791 417.849 296.036 404.492 296.036 404.492L295.996 372.306" fill="#035A63"/><path id="Fill 31" fill-rule="evenodd" clip-rule="evenodd" d="M295.057 444.838C297.753 442.047 300.185 439.04 301.981 435.784C302.881 434.164 303.537 432.449 303.934 430.752C304.316 429.039 304.265 427.395 303.929 425.618C303.324 422.101 301.832 418.646 300.177 415.31C298.508 411.982 296.538 408.686 294.46 405.643L294.08 405.087L294.084 404.494C294.103 401.812 294.203 399.13 294.272 396.447C294.323 393.765 294.496 391.083 294.61 388.401C294.772 385.718 294.923 383.036 295.161 380.354C295.378 377.671 295.641 374.989 295.996 372.306C296.358 374.988 296.627 377.67 296.851 380.352C297.095 383.033 297.254 385.715 297.422 388.397C297.543 391.079 297.723 393.761 297.78 396.443C297.857 399.125 297.963 401.807 297.989 404.489L297.613 403.34C299.989 406.609 301.982 409.975 303.721 413.58C305.424 417.179 306.808 421.009 307.298 425.16C307.539 427.201 307.372 429.498 306.706 431.513C306.063 433.541 304.99 435.328 303.813 436.959C301.388 440.18 298.396 442.821 295.057 444.838" fill="#16494C"/><path id="Fill 33" fill-rule="evenodd" clip-rule="evenodd" d="M291.996 369.311C291.994 367.102 293.782 365.309 295.992 365.306H295.996C298.203 365.306 299.994 367.094 299.996 369.301C299.996 369.301 303.067 382.298 295.693 404.492C291.648 404.492 291.996 369.311 291.996 369.311" fill="#FDCF3C"/><path id="Fill 35" fill-rule="evenodd" clip-rule="evenodd" d="M408.757 380.059C408.757 380.059 414.107 376.394 415.42 374.934C416.483 373.75 417.333 372.32 417.66 370.776C418.108 370.757 418.555 370.722 419 370.668C420.543 370.479 422.13 370.022 423.23 368.924C424.33 367.826 424.764 365.952 423.867 364.684C423.579 364.277 423.183 363.963 422.758 363.721C423.496 363.733 424.138 363.213 424.599 362.635C424.881 362.282 425.125 361.891 425.25 361.456C425.375 361.022 425.371 360.539 425.174 360.132C424.892 359.551 424.277 359.217 423.684 358.961C423.391 358.835 423.089 358.717 422.777 358.657C422.811 358.633 422.83 358.62 422.83 358.62C423.996 357.809 424.735 356.271 424.282 354.926C423.971 354 423.161 353.309 422.266 352.915C421.739 352.683 421.181 352.539 420.613 352.433C421.861 352.07 422.67 350.471 422.348 349.135C421.973 347.577 420.556 346.476 419.076 345.862C414.513 343.97 409.353 345.63 404.598 346.969C404.075 347.117 403.526 347.261 402.993 347.154C402.109 346.976 401.488 346.131 401.271 345.255C401.054 344.379 400.344 340.432 400.176 339.545C398.54 330.899 395.144 327.235 392.093 328.132C389.042 329.028 391.403 333.949 391.556 335.408C393.951 358.289 388.018 368.703 388.181 373.234L408.757 380.059Z" fill="#16494C"/><path id="Fill 37" fill-rule="evenodd" clip-rule="evenodd" d="M420.613 352.433C418.436 353.62 416.06 354.364 413.627 354.876C412.405 355.135 411.156 355.277 409.864 355.309C409.216 355.318 408.558 355.267 407.88 355.151C407.207 355.021 406.492 354.831 405.798 354.35C405.103 353.881 404.56 352.952 404.525 352.094C404.409 351.157 404.981 350.142 405.609 349.698C406.239 349.208 406.889 348.947 407.523 348.738C408.157 348.528 408.791 348.403 409.422 348.314C411.934 347.97 414.413 348.077 416.845 348.521C414.415 348.906 412.003 349.246 409.738 349.843C408.643 350.166 407.48 350.539 406.836 351.14C406.522 351.448 406.443 351.637 406.472 351.926C406.52 352.288 406.655 352.497 406.96 352.724C407.593 353.205 408.79 353.367 409.9 353.421C411.042 353.495 412.222 353.406 413.41 353.336C415.786 353.129 418.188 352.831 420.613 352.433" fill="#CADBDA"/><path id="Fill 39" fill-rule="evenodd" clip-rule="evenodd" d="M422.858 369.256C422.134 370.033 421.137 370.473 420.191 370.901C419.22 371.292 418.221 371.62 417.193 371.843C416.169 372.095 415.116 372.213 414.036 372.271C412.954 372.297 411.839 372.246 410.659 371.793C410.084 371.555 409.444 371.168 409.013 370.487C408.797 370.156 408.676 369.761 408.625 369.388C408.571 368.999 408.609 368.535 408.773 368.172C409.086 367.41 409.621 366.99 410.103 366.643C410.596 366.3 411.107 366.068 411.619 365.877C413.658 365.13 415.731 364.884 417.81 364.949C415.885 365.696 413.957 366.381 412.274 367.294C411.863 367.53 411.474 367.784 411.15 368.048C410.833 368.312 410.584 368.619 410.55 368.827C410.52 368.935 410.524 368.998 410.544 369.109C410.574 369.235 410.606 369.339 410.68 369.427C410.798 369.611 411.055 369.802 411.416 369.942C412.138 370.237 413.094 370.34 414.037 370.383C414.993 370.433 415.971 370.366 416.958 370.306C417.942 370.225 418.935 370.119 419.923 369.962C420.913 369.801 421.908 369.652 422.858 369.256" fill="#CADBDA"/><path id="Fill 41" fill-rule="evenodd" clip-rule="evenodd" d="M422.758 363.721C420.883 364.786 418.823 365.431 416.739 365.919C414.641 366.387 412.499 366.693 410.194 366.427C409.616 366.335 409.026 366.205 408.416 365.931C407.828 365.667 407.117 365.164 406.816 364.343C406.736 364.143 406.688 363.943 406.674 363.744C406.639 363.536 406.652 363.355 406.675 363.179L406.741 362.646C406.78 362.471 406.863 362.298 406.929 362.128C407.045 361.77 407.296 361.506 407.513 361.226C407.763 360.999 408.029 360.775 408.302 360.622C409.407 359.991 410.543 359.847 411.634 359.785C412.73 359.758 413.808 359.849 414.853 360.108C413.798 360.293 412.764 360.468 411.78 360.756C410.804 361.021 409.847 361.394 409.178 361.914C408.863 362.188 408.632 362.471 408.557 362.776C408.541 362.854 408.501 362.921 408.493 363.002C408.498 363.089 408.499 363.172 408.497 363.255C408.488 363.341 408.487 363.423 408.513 363.475C408.519 363.54 408.542 363.592 408.571 363.634C408.656 363.805 408.845 363.996 409.213 364.146C409.568 364.295 410.017 364.387 410.477 364.448C411.404 364.599 412.416 364.591 413.426 364.564C414.441 364.557 415.465 364.45 416.499 364.383C418.563 364.195 420.643 363.993 422.758 363.721" fill="#CADBDA"/><path id="Fill 43" fill-rule="evenodd" clip-rule="evenodd" d="M422.777 358.657C420.875 359.699 418.771 360.232 416.679 360.665C414.574 361.083 412.426 361.297 410.222 361.214C409.12 361.131 408.005 361.026 406.862 360.625C406.299 360.412 405.715 360.151 405.186 359.656C404.924 359.406 404.691 359.101 404.525 358.744C404.458 358.561 404.406 358.37 404.359 358.184L404.321 357.697C404.27 357.064 404.407 356.317 404.824 355.759C405.225 355.2 405.784 354.827 406.336 354.63C407.455 354.248 408.568 354.225 409.628 354.428C408.588 354.661 407.564 354.975 406.777 355.507C406.377 355.757 406.089 356.092 405.949 356.432C405.801 356.769 405.773 357.129 405.873 357.532L405.939 357.83C405.979 357.892 406.006 357.954 406.036 358.015C406.118 358.126 406.211 358.237 406.343 358.341C406.608 358.55 407.018 358.711 407.451 358.825C408.317 359.082 409.324 359.178 410.322 359.218C412.333 359.333 414.408 359.217 416.485 359.122C418.565 358.986 420.659 358.9 422.777 358.657" fill="#CADBDA"/><path id="Fill 45" fill-rule="evenodd" clip-rule="evenodd" d="M407.205 386.077L385.052 378.185C383.174 377.516 382.197 375.465 382.88 373.626C383.564 371.788 385.659 370.831 387.537 371.5L409.69 379.392C411.567 380.061 412.545 382.112 411.861 383.951C411.178 385.789 409.083 386.746 407.205 386.077" fill="#FDCF3C"/><path id="Fill 47" fill-rule="evenodd" clip-rule="evenodd" d="M271.991 377.74L271.141 381.74H198.081L196.621 377.74H271.991Z" fill="#E2C9B0"/><path id="Fill 49" fill-rule="evenodd" clip-rule="evenodd" d="M265.032 410.49L264.182 414.49H209.962L208.512 410.49H265.032Z" fill="#E2C9B0"/><path id="Fill 51" fill-rule="evenodd" clip-rule="evenodd" d="M257.751 444.76L256.901 448.76H222.401L220.941 444.76H257.751Z" fill="#E2C9B0"/></g></g></g></g><g id="Female Head" transform="translate(89 329) scale(1 1)"><g id="Female Head/Short Hair 1"><g id="Head"><g id="Group 3"><path id="Fill 1" fill-rule="evenodd" clip-rule="evenodd" d="M141.511 48.0827C183.245 49.7337 213.951 85.5137 213.951 125.88C213.951 152.229 202.181 176.49 191.647 188.383C161.612 193.156 117.85 194.073 77.6565 188.383C58.0705 168.643 52.9995 149.065 52.9995 126.88C52.9995 88.6847 85.6275 45.8717 141.511 48.0827" fill="#CADBDA"/></g><path id="Fill 4" fill-rule="evenodd" clip-rule="evenodd" d="M141.634 79.0437C120.312 77.3907 100.02 88.7317 100.02 124.401L101.341 150.823C105.621 183.095 138.673 192.101 149.762 192.101C161.719 192.101 172.214 177.986 174.777 166.582C176.42 159.27 176.054 151.669 176.848 144.216C177.664 136.556 179.219 128.974 179.219 121.27C179.219 104.585 170.038 81.2447 141.634 79.0437" fill="#a0522d"/><path id="Fill 6" fill-rule="evenodd" clip-rule="evenodd" d="M101.341 150.823L102.388 191.05C102.388 191.05 121.427 192.314 131.414 192.314C137.799 192.314 149.763 192.1 149.763 192.1C136.396 191.807 105.441 181.732 101.341 150.823" fill="#16494C"/><path id="Fill 8" fill-rule="evenodd" clip-rule="evenodd" d="M81.3953 111.651C81.3953 131.274 86.5493 136.71 81.3953 141.266C76.6633 145.449 66.7533 139.152 66.7533 139.152C65.5493 149.796 69.3953 167.357 87.3493 171.642C99.2063 174.471 106.26 167.142 108.888 159.736C111.311 152.91 109.162 143.104 115.068 136.396C121.578 129.002 128.496 132.789 136.11 125.083C142.209 118.911 152.507 80.2371 170.841 94.4031C183.12 112.753 177.886 131.01 176.848 144.215C175.721 158.556 176.165 163.251 173.215 171.568C173.215 171.568 180.367 177.265 186.973 175.505C193.578 173.743 201.725 166.037 202.606 150.823C192.478 156.129 183.45 151.945 186.092 143.358C188.734 134.77 194.499 118.931 194.499 118.931C194.499 118.931 203.707 91.8351 185.734 90.2431C185.734 90.2431 175.94 58.4841 134.726 59.9581C103.931 61.0581 81.3953 87.6481 81.3953 111.651" fill="#2d2824"/><path id="Fill 10" fill-rule="evenodd" clip-rule="evenodd" d="M77.778 188.413L77.774 188.407C77.77 188.407 77.765 188.406 77.761 188.406C76.495 191.214 76.667 194.901 78.257 197.289C127.467 205.415 162.807 202.845 189.828 198.149C192.499 196.25 193.275 190.801 191.769 188.413C162.229 193.116 117.972 194.103 77.778 188.413" fill="#FDCF3C"/><path id="Fill 12" fill-rule="evenodd" clip-rule="evenodd" d="M189.824 198.15C162.851 202.837 127.588 205.404 78.5142 197.33C78.3212 197.326 78.2162 197.323 78.2162 197.323C78.2162 197.323 75.6492 201.805 79.2822 205.438C123.697 216.112 173.678 211 189.862 205.438C192.18 201.2 189.862 198.149 189.862 198.149C189.862 198.149 189.837 198.149 189.824 198.15" fill="#FDCF3C"/><path id="Fill 14" fill-rule="evenodd" clip-rule="evenodd" d="M77.858 198.735C99.429 202.828 121.422 204.689 143.375 204.291C156.775 204.047 170.205 203.018 183.439 200.858C185.707 200.488 187.984 200.106 190.226 199.595C192.108 199.167 191.312 196.274 189.429 196.703C182.919 198.184 176.213 198.998 169.584 199.698C152.312 201.523 134.866 201.8 117.536 200.717C104.488 199.903 91.5 198.279 78.655 195.842C76.769 195.484 75.96 198.375 77.858 198.735" fill="#E35A38"/></g></g></g><g id="Expression" transform="translate(86 329) scale(1 1)"><g id="Expression/Cheerful Red Lips"><g id="Face 12"><path id="Fill 1" fill-rule="evenodd" clip-rule="evenodd" d="M153.611 139.904C154.304 141.693 155.242 143.245 156.43 144.538C157.033 145.173 157.667 145.765 158.379 146.244C159.055 146.741 159.857 147.086 160.761 147.762C161.195 148.1 161.638 148.559 161.937 149.11C162.234 149.658 162.429 150.371 162.291 151.093C162.152 151.811 161.746 152.367 161.34 152.763C160.926 153.173 160.502 153.452 160.018 153.707C159.081 154.197 158.128 154.436 157.176 154.62C156.219 154.776 155.262 154.874 154.298 154.823C156.039 154.066 157.822 153.358 159.196 152.381C159.834 151.885 160.445 151.231 160.421 150.796C160.462 150.386 160.126 149.772 159.53 149.338C158.945 148.87 158.023 148.42 157.231 147.743C156.455 147.08 155.741 146.344 155.202 145.491C154.085 143.825 153.48 141.827 153.611 139.904" fill="#16494C"/><path id="Fill 3" fill-rule="evenodd" clip-rule="evenodd" d="M141.572 163.653C143.668 164.015 145.548 164.452 147.392 164.82C149.226 165.194 150.997 165.487 152.711 165.618C154.419 165.723 156.098 165.671 157.837 165.338C159.579 165.009 161.36 164.477 163.308 163.653C162.524 165.668 160.853 167.233 158.917 168.278C156.964 169.326 154.651 169.752 152.435 169.607C150.223 169.447 148.136 168.769 146.289 167.765C144.452 166.744 142.782 165.428 141.572 163.653" fill="#930000"/><g id="Group 7"><path id="Fill 5" fill-rule="evenodd" clip-rule="evenodd" d="M130.821 126.258C132.223 123.974 134.688 122.317 137.379 122.041C140.24 121.747 143.038 122.904 144.957 125.016C146.258 126.447 148.374 124.321 147.078 122.895C144.605 120.173 140.806 118.654 137.133 119.067C133.454 119.481 130.166 121.59 128.231 124.744C127.218 126.394 129.812 127.903 130.821 126.258" fill="#16494C"/></g><g id="Group 10"><path id="Fill 8" fill-rule="evenodd" clip-rule="evenodd" d="M174.796 123.851C173.063 121.597 170.456 120.147 167.569 120.164C164.688 120.182 162.084 121.659 160.383 123.935C159.898 124.584 160.278 125.611 160.922 125.987C161.687 126.435 162.488 126.1 162.974 125.449C165.185 122.488 169.944 122.424 172.206 125.366C172.699 126.006 173.496 126.349 174.258 125.904C174.889 125.535 175.293 124.497 174.796 123.851" fill="#16494C"/></g><path id="Fill 11" fill-rule="evenodd" clip-rule="evenodd" d="M132.763 137.85C132.319 136.241 133.132 134.358 134.476 133.228C135.813 132.054 137.604 131.454 139.367 131.452C141.13 131.452 142.922 132.052 144.26 133.226C145.605 134.356 146.418 136.241 145.971 137.85C145.54 136.267 144.519 135.186 143.33 134.48C142.129 133.775 140.746 133.466 139.367 133.451C137.988 133.462 136.604 133.773 135.402 134.477C134.213 135.184 133.191 136.267 132.763 137.85" fill="#16494C"/><path id="Fill 13" fill-rule="evenodd" clip-rule="evenodd" d="M160.163 137.854C159.719 136.246 160.532 134.362 161.876 133.232C163.213 132.058 165.004 131.458 166.767 131.456C168.53 131.456 170.322 132.056 171.66 133.23C173.005 134.36 173.818 136.246 173.371 137.854C172.94 136.271 171.919 135.191 170.73 134.484C169.529 133.779 168.146 133.47 166.767 133.455C165.388 133.466 164.004 133.777 162.802 134.481C161.613 135.188 160.591 136.271 160.163 137.854" fill="#16494C"/></g></g></g><g id="Accesories" transform="translate(164 413)"/></g></g><g id="Master/Male Character/Sitting" transform="translate(318 -10) scale(1 1)"><g id="Master/Male Character/Sitting"><g id="Male Lower Sitting" transform="translate(148 638) scale(1 1)"><g id="Male Lower Sitting/Formal 1"><g id="Group 38"><g id="Group 3"><mask id="mask0_122_207540f0fb5f2-953c-4c1d-b695-3dece320335f" style="mask-type:alpha" maskUnits="userSpaceOnUse" x="76" y="83" width="251" height="277" fill="#ffffff"><path id="Clip 2" fill-rule="evenodd" clip-rule="evenodd" d="M76.6191 83.7258H326.261V359.288H76.6191V83.7258Z" fill="#ffffff"/></mask><g mask="url(#mask0_122_207540f0fb5f2-953c-4c1d-b695-3dece320335f)"><path id="Fill 1" fill-rule="evenodd" clip-rule="evenodd" d="M324.178 342.197C314.269 332.949 280.343 337.114 276.38 317.738C272.545 298.99 298.339 217.285 301.311 182.307C304.868 180.836 306.48 177.318 307.222 173.54C307.964 169.762 306.699 165.65 303.963 162.941C307.616 160.713 309.841 156.838 309.232 152.601C308.623 148.364 305.215 146.009 301.081 144.898C305.462 142.285 305.435 136.472 304.109 131.683C302.746 126.767 298.363 122.105 293.471 123.551C294.48 119.117 293.429 114.261 289.725 111.478C283.965 107.151 277.006 110.326 277.006 110.326C277.006 110.326 163.411 70.9133 76.9271 88.0373C76.9271 88.0373 69.1731 164.097 131.485 164.097H244.602C232.072 210.289 249.775 266.435 238.734 341.738L239.306 352.748C239.306 352.748 271.447 359.148 305.471 359.287C314.678 359.324 319.956 357.823 323.81 354.639C325.124 353.554 325.952 351.991 326.144 350.298C326.42 347.853 326.369 344.242 324.178 342.197" fill="#E35A38"/></g></g><path id="Fill 4" fill-rule="evenodd" clip-rule="evenodd" d="M14.5312 88.037L23.2872 34.862C23.2872 34.862 41.2832 20 86.2012 20C131.118 20 144.989 34.862 144.989 34.862L152.981 88.697C148.867 99.637 119.316 135.941 91.1182 149.138C91.1182 149.138 57.1362 105.541 14.5312 88.037" fill="#E35A38"/><path id="Fill 6" fill-rule="evenodd" clip-rule="evenodd" d="M150.441 75.3876C151.481 73.3346 153.986 72.5136 156.039 73.5526C158.091 74.5916 158.914 77.0966 157.874 79.1516C140.249 113.963 115.448 132.316 98.7832 137.115C113.185 124.27 133.819 108.218 150.441 75.3876" fill="#FDCF3C"/><path id="Fill 8" fill-rule="evenodd" clip-rule="evenodd" d="M16.158 87.829C13.471 88.468 10.776 86.808 10.137 84.122C9.498 81.435 11.155 78.741 13.845 78.1C59.408 67.265 95.452 75.764 112.768 87.314C89.833 84.074 59.127 77.61 16.158 87.829" fill="#FDCF3C"/><path id="Fill 10" fill-rule="evenodd" clip-rule="evenodd" d="M238.848 343.946V343.946C238.848 343.946 293.691 351.646 304.7 350.765C315.694 349.886 322.786 346.478 325.082 343.345C326.357 345.423 326.373 348.259 326.143 350.298C325.952 351.991 325.123 353.554 323.809 354.639C319.955 357.823 314.677 359.325 305.471 359.287C271.446 359.148 239.306 352.747 239.306 352.747L238.848 343.946Z" fill="#BF432B"/><path id="Fill 12" fill-rule="evenodd" clip-rule="evenodd" d="M238.848 343.946C240.038 339.689 242.171 335.827 244.748 332.273C247.35 328.736 250.534 325.535 254.336 322.991C256.258 321.75 258.336 320.677 260.571 319.922C262.799 319.173 265.192 318.716 267.596 318.815C269.992 318.892 272.352 319.463 274.437 320.461L275.939 321.309C276.431 321.592 276.871 321.966 277.315 322.309C278.225 322.958 278.966 323.83 279.693 324.634C277.553 324.029 275.567 323.477 273.588 323.285C271.613 323.108 269.724 323.184 267.902 323.523C264.254 324.176 260.887 325.922 257.631 328.003C254.401 330.159 251.291 332.697 248.233 335.429L238.848 343.946Z" fill="#BF432B"/><path id="Fill 14" fill-rule="evenodd" clip-rule="evenodd" d="M262.334 342.197C252.426 332.949 218.499 337.114 214.536 317.738C210.701 298.99 236.495 217.285 239.467 182.307C243.024 180.836 244.636 177.318 245.378 173.54C246.12 169.762 244.855 165.65 242.119 162.941C245.772 160.713 247.997 156.838 247.388 152.601C246.779 148.364 243.371 146.009 239.237 144.898C243.618 142.285 243.591 136.472 242.265 131.683C240.902 126.767 236.52 122.105 231.627 123.551C232.636 119.117 231.585 114.261 227.881 111.478C222.121 107.151 215.162 110.326 215.162 110.326C215.162 110.326 101.567 70.9133 15.0833 88.0373C15.0833 88.0373 7.32932 164.097 69.6413 164.097H182.758C170.228 210.289 187.931 266.435 176.89 341.738L177.462 352.748C177.462 352.748 209.603 359.148 243.627 359.287C252.834 359.324 258.112 357.823 261.966 354.639C263.28 353.554 264.108 351.991 264.3 350.298C264.576 347.853 264.525 344.242 262.334 342.197" fill="#E35A38"/><path id="Fill 16" fill-rule="evenodd" clip-rule="evenodd" d="M177.006 343.946V343.946C177.006 343.946 231.849 351.646 242.858 350.765C253.852 349.886 260.944 346.478 263.24 343.345C264.515 345.423 264.531 348.259 264.301 350.298C264.11 351.991 263.281 353.554 261.967 354.639C258.113 357.823 252.835 359.325 243.629 359.287C209.604 359.148 177.464 352.747 177.464 352.747L177.006 343.946Z" fill="#BF432B"/><path id="Fill 18" fill-rule="evenodd" clip-rule="evenodd" d="M177.006 343.946C178.197 339.689 180.329 335.827 182.906 332.273C185.508 328.736 188.692 325.535 192.494 322.991C194.416 321.75 196.494 320.677 198.73 319.922C200.957 319.173 203.35 318.716 205.754 318.815C208.15 318.892 210.51 319.463 212.596 320.461L214.098 321.309C214.589 321.592 215.029 321.966 215.473 322.309C216.383 322.958 217.124 323.83 217.851 324.634C215.711 324.029 213.725 323.477 211.746 323.285C209.772 323.108 207.882 323.184 206.06 323.523C202.412 324.176 199.045 325.922 195.789 328.003C192.559 330.159 189.449 332.697 186.391 335.429L177.006 343.946Z" fill="#BF432B"/><path id="Fill 20" fill-rule="evenodd" clip-rule="evenodd" d="M215.009 110.326C198.554 106.161 182.075 102.415 165.538 99.0291C157.256 97.4111 148.994 95.7241 140.676 94.3671C132.372 92.9381 124.055 91.6091 115.709 90.5181C107.367 89.3991 99.0057 88.4711 90.6327 87.6791C82.2577 86.8811 73.8617 86.4631 65.4567 86.0761C61.2557 85.9891 57.0477 85.8581 52.8417 85.8911C48.6287 85.8141 44.4257 85.9941 40.2097 86.0851C31.7857 86.3951 23.3767 87.1031 14.9297 88.0371C23.1237 85.7921 31.5217 84.2891 39.9727 83.1481C48.4387 82.1561 56.9597 81.5711 65.4917 81.3941C74.0237 81.2231 82.5547 81.5401 91.0707 82.0141C99.5797 82.5871 108.064 83.4601 116.512 84.5761C124.945 85.7961 133.353 87.1591 141.707 88.7971C150.049 90.4891 158.362 92.3121 166.586 94.4841C183.042 98.7561 199.318 103.798 215.009 110.326" fill="#BF432B"/><path id="Fill 22" fill-rule="evenodd" clip-rule="evenodd" d="M301.311 182.308C304.868 180.836 306.479 177.318 307.222 173.54C307.963 169.763 306.699 165.65 303.962 162.943C307.616 160.712 309.841 156.838 309.231 152.602C308.623 148.365 305.215 146.009 301.081 144.899C305.462 142.285 305.435 136.473 304.108 131.684C302.746 126.768 298.363 122.105 293.471 123.551C294.479 119.118 293.429 114.262 289.725 111.479C283.965 107.152 277.005 110.327 277.005 110.327L244.602 164.098L301.311 182.308Z" fill="#FDCF3C"/><path id="Fill 24" fill-rule="evenodd" clip-rule="evenodd" d="M293.471 123.551C289.93 127.571 286.123 131.269 282.254 134.894C278.369 138.498 274.384 141.983 270.313 145.363C266.243 148.744 262.083 152.018 257.824 155.171C253.549 158.306 249.209 161.364 244.602 164.098C248.139 160.073 251.945 156.373 255.815 152.75C259.7 149.146 263.685 145.662 267.76 142.285C271.834 138.908 275.993 135.635 280.253 132.482C284.529 129.348 288.867 126.288 293.471 123.551" fill="#FCAE3D"/><path id="Fill 26" fill-rule="evenodd" clip-rule="evenodd" d="M301.081 144.898C296.643 147.287 292.069 149.28 287.465 151.181C282.853 153.059 278.191 154.789 273.485 156.39C268.779 157.994 264.029 159.463 259.227 160.786C254.419 162.086 249.578 163.291 244.602 164.097C249.039 161.704 253.611 159.709 258.215 157.808C262.828 155.931 267.49 154.202 272.198 152.604C276.905 151.006 281.656 149.536 286.456 148.214C291.266 146.917 296.106 145.71 301.081 144.898" fill="#FCAE3D"/><path id="Fill 28" fill-rule="evenodd" clip-rule="evenodd" d="M244.602 164.098C249.533 163.168 254.471 162.658 259.412 162.242C264.353 161.852 269.297 161.619 274.244 161.521C279.19 161.421 284.14 161.462 289.092 161.659C294.045 161.879 298.999 162.201 303.963 162.943C299.032 163.876 294.094 164.391 289.153 164.803C284.212 165.193 279.268 165.426 274.321 165.519C269.374 165.613 264.425 165.573 259.473 165.375C254.52 165.153 249.565 164.834 244.602 164.098" fill="#FCAE3D"/><path id="Fill 30" fill-rule="evenodd" clip-rule="evenodd" d="M239.469 182.308C243.027 180.836 244.638 177.318 245.38 173.54C246.122 169.763 244.857 165.65 242.12 162.943C245.774 160.712 247.999 156.838 247.39 152.602C246.781 148.365 243.373 146.009 239.239 144.899C243.62 142.285 243.593 136.473 242.266 131.684C240.904 126.768 236.521 122.105 231.629 123.551C232.637 119.118 231.588 114.262 227.883 111.479C222.123 107.152 215.163 110.327 215.163 110.327L182.76 164.098L239.469 182.308Z" fill="#FDCF3C"/><path id="Fill 32" fill-rule="evenodd" clip-rule="evenodd" d="M182.76 164.098C187.69 163.168 192.629 162.658 197.57 162.242C202.51 161.852 207.454 161.619 212.401 161.521C217.348 161.421 222.297 161.462 227.25 161.659C232.202 161.879 237.157 162.201 242.12 162.943C237.19 163.876 232.251 164.391 227.311 164.803C222.37 165.193 217.426 165.426 212.479 165.519C207.532 165.613 202.583 165.573 197.631 165.375C192.677 165.153 187.723 164.834 182.76 164.098" fill="#FCAE3D"/><path id="Fill 34" fill-rule="evenodd" clip-rule="evenodd" d="M231.629 123.551C228.088 127.571 224.281 131.269 220.413 134.894C216.527 138.498 212.542 141.983 208.471 145.363C204.401 148.744 200.241 152.018 195.982 155.171C191.707 158.306 187.368 161.364 182.76 164.098C186.297 160.073 190.103 156.373 193.973 152.75C197.858 149.146 201.843 145.662 205.918 142.285C209.992 138.908 214.151 135.635 218.411 132.482C222.687 129.348 227.025 126.288 231.629 123.551" fill="#FCAE3D"/><path id="Fill 36" fill-rule="evenodd" clip-rule="evenodd" d="M239.239 144.898C234.801 147.287 230.227 149.28 225.624 151.181C221.011 153.059 216.349 154.789 211.643 156.39C206.937 157.994 202.187 159.463 197.385 160.786C192.577 162.086 187.736 163.291 182.76 164.097C187.197 161.704 191.769 159.709 196.373 157.808C200.986 155.931 205.648 154.202 210.356 152.604C215.063 151.006 219.814 149.536 224.615 148.214C229.424 146.917 234.264 145.71 239.239 144.898" fill="#FCAE3D"/></g></g></g><g id="Male Upper" transform="translate(0 157) scale(1 1)"><g id="Male Upper/Holding Clipboard 1"><g id="Group 56"><path id="Fill 1" fill-rule="evenodd" clip-rule="evenodd" d="M238.44 542.6C238.387 542.6 238.333 542.591 238.28 542.574C238.019 542.486 237.878 542.203 237.966 541.941L242.839 527.478C242.927 527.216 243.21 527.078 243.472 527.163C243.734 527.251 243.875 527.535 243.786 527.796L238.914 542.259C238.843 542.468 238.649 542.6 238.44 542.6" fill="#A4BAB9"/><path id="Fill 3" fill-rule="evenodd" clip-rule="evenodd" d="M160.217 420.859C166.799 454.834 169.43 473.637 170.482 483.255L123.619 477.998C124.685 476.536 149.098 442.998 160.217 420.859V420.859ZM409.23 369.979L380.281 361.859L356.149 431.955C356.148 434.08 343.384 405.862 306.442 351.618L305.782 358.016C304.046 355.15 301.887 352.353 299.233 349.667L268.948 343.291C279.409 378.291 254.011 468.421 248.026 488.638C243.735 469.946 221.905 380.299 183.727 342.713L147.111 352.499C120.267 372.756 80.5884 462.731 80.5884 462.731L77.8174 487.425L81.2494 504.515L103.327 517.458L216.535 523.583L221.564 492.016H247.012C246.918 492.324 246.852 492.536 246.819 492.64L292.866 492.016C293.526 489.924 299.296 420.3 299.296 420.3C299.296 420.3 299.323 420.259 299.375 420.181L299.362 420.309C304.561 435.135 333.448 478.153 333.448 478.153L358.907 490.999L382.685 473.651L409.23 369.979Z" fill="#E35A37"/><path id="Fill 5" fill-rule="evenodd" clip-rule="evenodd" d="M383.518 472.832C383.518 472.832 376.47 492.013 356.314 492.095C339.603 492.163 332.137 477.541 332.137 477.541L355.825 431.572L383.518 472.832Z" fill="#FDCF3C"/><path id="Fill 7" fill-rule="evenodd" clip-rule="evenodd" d="M355.825 431.572C355.917 436.567 355.578 441.494 355.141 446.406C354.676 451.313 354.051 456.195 353.287 461.055C352.524 465.915 351.616 470.752 350.548 475.564C349.455 480.372 348.258 485.164 346.628 489.888C346.531 484.892 346.866 479.964 347.306 475.053C347.771 470.146 348.396 465.264 349.166 460.405C349.935 455.546 350.842 450.708 351.911 445.896C353.006 441.088 354.2 436.296 355.825 431.572" fill="#FCAE3D"/><path id="Fill 9" fill-rule="evenodd" clip-rule="evenodd" d="M355.825 431.572C357.84 436.049 359.432 440.631 360.926 445.238C362.395 449.851 363.705 454.503 364.879 459.19C366.054 463.877 367.087 468.599 367.962 473.36C368.813 478.128 369.562 482.921 369.885 487.82C367.865 483.345 366.271 478.763 364.779 474.156C363.31 469.543 362 464.89 360.831 460.202C359.662 455.514 358.629 450.792 357.754 446.031C356.905 441.262 356.153 436.47 355.825 431.572" fill="#FCAE3D"/><path id="Fill 11" fill-rule="evenodd" clip-rule="evenodd" d="M264.339 499.44C264.339 504.907 258.411 509.339 251.099 509.339C243.786 509.339 237.858 504.907 237.858 499.44C237.858 493.973 243.786 489.541 251.099 489.541C258.411 489.541 264.339 493.973 264.339 499.44" fill="#FDCF3C"/><path id="Fill 13" fill-rule="evenodd" clip-rule="evenodd" d="M299.297 420.299C299.297 420.299 306.198 380.409 295.837 351.229C294.913 348.627 296.273 345.768 298.876 344.844C301.475 343.921 304.401 345.258 305.261 347.883C314.261 375.372 305.665 403.776 299.297 420.299" fill="#FDCF3C"/><path id="Fill 15" fill-rule="evenodd" clip-rule="evenodd" d="M271.569 365.665C271.579 366.975 271.559 368.305 271.519 369.665C271.349 378.265 270.509 387.685 269.249 397.375C269.079 398.705 268.899 400.035 268.709 401.375C267.069 413.105 264.859 425.085 262.519 436.345C262.249 437.695 261.959 439.025 261.679 440.345C255.539 469.075 248.809 492.095 248.809 492.095C248.809 492.095 244.029 469.165 234.669 440.345C234.239 439.025 233.799 437.695 233.359 436.345C233.009 435.295 232.649 434.245 232.289 433.185C228.779 422.885 224.729 412.045 220.129 401.375C219.549 400.035 218.969 398.705 218.369 397.375C214.079 387.745 209.339 378.325 204.159 369.665C203.349 368.315 202.529 366.975 201.699 365.665C196.179 356.915 190.189 349.075 183.729 342.715L197.399 340.015C197.399 340.015 215.869 332.455 226.249 332.455C237.809 332.455 244.739 335.735 256.439 340.305L268.949 343.285C270.749 349.325 271.539 356.995 271.569 365.665" fill="#FCE9D4"/><path id="Fill 17" fill-rule="evenodd" clip-rule="evenodd" d="M160.195 420.74C161.005 401.461 160.866 366.23 147.13 352.798C145.155 350.868 145.12 347.702 147.051 345.727C148.981 343.753 152.147 343.717 154.121 345.648C169.423 360.611 170.695 399.969 160.195 420.74" fill="#FDCF3C"/><g id="Group 21"><path id="Fill 19" fill-rule="evenodd" clip-rule="evenodd" d="M244.9 490.625L260.423 444.552L320.368 452.809C325.637 453.683 323.984 458.588 323.984 458.588L294.558 545.928C294.558 545.928 293.157 550.085 287.931 549.084L232.316 541.423C230.068 541.114 228.657 538.835 229.382 536.685L233.001 525.943L244.9 490.625Z" fill="#CADBDA"/></g><path id="Fill 22" fill-rule="evenodd" clip-rule="evenodd" d="M255.799 491.075C255.746 491.075 255.692 491.066 255.639 491.049C255.378 490.961 255.237 490.677 255.325 490.416L270.349 445.825C270.437 445.564 270.721 445.425 270.982 445.511C271.244 445.598 271.384 445.882 271.296 446.143L256.273 490.734C256.202 490.943 256.008 491.075 255.799 491.075" fill="#A4BAB9"/><path id="Fill 24" fill-rule="evenodd" clip-rule="evenodd" d="M123.619 477.998C131.763 478.303 139.873 478.798 147.959 479.687L172.169 482.375L196.36 485.224C204.438 486.185 212.502 487.367 220.503 488.914C212.355 488.607 204.251 488.078 196.141 487.555C192.082 487.315 188.026 486.952 183.969 486.61C179.917 486.229 175.872 485.789 171.828 485.353C167.79 484.859 163.75 484.38 159.717 483.829C155.688 483.248 151.655 482.681 147.647 481.997C139.629 480.673 131.626 479.537 123.619 477.998" fill="#BF432B"/><path id="Fill 26" fill-rule="evenodd" clip-rule="evenodd" d="M316.769 479.557L306.844 478.189L303.857 470.683L284.123 467.964L276.941 474.071L262.171 472.036L262.308 471.046L276.634 473.02L283.817 466.913L304.571 469.771L307.558 477.279L316.906 478.567L316.769 479.557Z" fill="#A4BAB9"/><path id="Fill 28" fill-rule="evenodd" clip-rule="evenodd" d="M248.958 478.582L245.732 478.004C244.897 477.854 244.234 477.214 244.057 476.383L239.943 457.121C239.865 456.754 239.886 456.373 240.006 456.017L244.055 443.999C244.376 443.047 245.329 442.458 246.324 442.596L260.424 444.551L248.958 478.582Z" fill="#A4BAB9"/><path id="Fill 30" fill-rule="evenodd" clip-rule="evenodd" d="M244.9 491.125C244.847 491.125 244.793 491.116 244.74 491.099C244.479 491.011 244.338 490.727 244.426 490.466L259.949 444.393C260.038 444.131 260.323 443.992 260.583 444.078C260.844 444.166 260.985 444.45 260.897 444.711L245.374 490.784C245.303 490.993 245.109 491.125 244.9 491.125" fill="#A4BAB9"/><path id="Fill 32" fill-rule="evenodd" clip-rule="evenodd" d="M228.717 490.625C228.717 490.625 237.746 482.791 246.994 482.813L244.35 490.575C258.001 492.226 274.405 485.633 275.176 490.9C275.946 496.168 252.572 500.155 252.572 500.155C262.405 503.506 275.224 498.98 275.176 503.836C275.121 509.341 250.295 509.506 250.295 509.506C257.561 512.753 274.075 509.287 274.185 514.074C274.295 518.863 250.02 519.084 250.02 519.084C259.047 522.937 272.072 519.537 272.183 523.708C272.293 527.878 252.607 531.689 223.757 523.708L228.717 490.625Z" fill="#18484C"/><g id="Group 36"><path id="Fill 34" fill-rule="evenodd" clip-rule="evenodd" d="M80.5885 462.73C80.5885 462.73 75.4695 465.372 73.6525 472.473C71.8365 479.574 74.8085 483.956 74.8085 483.956C74.8085 483.956 70.3585 490.829 72.6615 497.409C74.9735 504.014 81.2495 506.161 81.2495 506.161C81.2495 506.161 81.5795 512.793 88.3495 516.4C95.1205 520.006 103.762 517.582 103.762 517.582L123.579 478.068L80.5885 462.73Z" fill="#FDCF3C"/></g><path id="Fill 37" fill-rule="evenodd" clip-rule="evenodd" d="M123.579 478.068C120.395 480.926 117.047 483.538 113.641 486.063C111.954 487.349 110.207 488.545 108.488 489.783L103.243 493.364C99.72 495.712 96.126 497.953 92.479 500.113C88.829 502.271 85.121 504.34 81.249 506.161C84.431 503.3 87.778 500.687 91.184 498.162C94.591 495.64 98.052 493.199 101.585 490.865L106.922 487.423C108.731 486.32 110.511 485.175 112.352 484.12C116.001 481.962 119.708 479.892 123.579 478.068" fill="#FCAE3D"/><path id="Fill 39" fill-rule="evenodd" clip-rule="evenodd" d="M74.8086 483.956C78.7986 482.849 82.8236 482.036 86.8616 481.326C88.8766 480.944 90.9056 480.668 92.9276 480.342L99.0146 479.524C103.078 479.024 107.156 478.653 111.247 478.378C115.337 478.106 119.44 477.939 123.58 478.068C119.59 479.179 115.565 479.993 111.527 480.702C107.489 481.409 103.439 482.019 99.3736 482.5L93.2666 483.154C91.2256 483.319 89.1896 483.534 87.1406 483.642C83.0506 483.913 78.9466 484.082 74.8086 483.956" fill="#FCAE3D"/><path id="Fill 41" fill-rule="evenodd" clip-rule="evenodd" d="M220.475 489.163C220.475 489.163 221.674 485.758 225.194 486.221C229.378 486.772 228.717 490.625 228.717 490.625L223.541 525.146C223.541 525.146 222.442 528.937 218.258 528.166C215.026 527.571 214.972 523.707 214.972 523.707L220.475 489.163Z" fill="#FDCF3C"/><path id="Fill 43" fill-rule="evenodd" clip-rule="evenodd" d="M271.569 365.665C271.579 366.975 271.559 368.305 271.519 369.665H204.159C203.349 368.315 202.529 366.975 201.699 365.665H271.569Z" fill="#E2C9B0"/><path id="Fill 45" fill-rule="evenodd" clip-rule="evenodd" d="M269.25 397.375C269.08 398.705 268.9 400.035 268.71 401.375H220.13C219.55 400.035 218.97 398.705 218.37 397.375H269.25Z" fill="#E2C9B0"/><path id="Fill 47" fill-rule="evenodd" clip-rule="evenodd" d="M262.519 436.345C262.249 437.695 261.959 439.025 261.679 440.345H234.669C234.239 439.025 233.799 437.695 233.359 436.345H262.519Z" fill="#E2C9B0"/><g id="Group 51"><path id="Fill 49" fill-rule="evenodd" clip-rule="evenodd" d="M411.128 363.869C414.792 358.701 418.318 351.355 419.82 345.2C420.688 341.641 420.776 337.913 421.826 334.404C423.903 327.457 429.58 321.895 431.022 314.789C431.216 313.833 431.294 312.73 430.658 311.991C430.163 311.415 429.329 311.216 428.578 311.329C427.826 311.442 427.143 311.826 426.518 312.257C424.327 313.769 422.656 315.915 421.172 318.125C419.719 320.291 418.409 322.553 417.254 324.891C417.233 323.662 417.265 322.434 417.397 321.211C418.124 314.505 421.813 308.503 423.524 301.979C423.72 301.232 423.89 300.46 423.793 299.694C423.695 298.929 423.28 298.163 422.58 297.839C421.912 297.529 421.127 297.669 420.419 297.872C419.366 298.174 418.334 298.614 417.492 299.315C416.492 300.147 415.815 301.297 415.186 302.436C411.836 308.499 409.23 314.972 407.441 321.664C406.224 315.393 406.692 308.793 408.819 302.765C409.817 299.935 411.195 297.015 410.626 294.069C410.497 293.398 410.234 292.702 409.672 292.313C408.798 291.709 407.593 292.077 406.668 292.6C404.188 294.002 402.349 296.35 401.081 298.903C399.814 301.455 399.066 304.228 398.327 306.981C397.235 311.044 396.143 315.107 395.046 319.169C394.343 313.95 394.525 308.613 395.587 303.455C396.052 301.203 396.685 298.959 396.682 296.659C396.682 295.863 396.551 294.966 395.911 294.491C395.398 294.11 394.691 294.114 394.067 294.256C392.463 294.621 391.12 295.77 390.207 297.139C389.294 298.508 388.761 300.09 388.297 301.669C385.232 312.088 384.76 323.058 384.427 333.925C382.923 329.883 381.372 325.857 379.546 321.951C378.618 319.964 377.604 317.987 376.167 316.33C375.937 316.066 375.688 315.803 375.367 315.661C374.763 315.395 374.028 315.633 373.549 316.087C373.071 316.541 372.804 317.173 372.6 317.8C371.896 319.97 372.162 322.479 372.252 324.759C372.644 334.691 377.544 347.14 382.408 355.81L411.128 363.869Z" fill="#16494C"/></g><path id="Fill 52" fill-rule="evenodd" clip-rule="evenodd" d="M384.439 333.675C386.658 333.407 388.93 333.212 391.259 333.907C393.55 334.665 395.373 335.935 397.285 337.023C399.224 338.206 401.101 339.679 402.459 341.605C403.836 343.502 404.611 345.832 404.535 348.086C403.777 345.961 402.684 344.114 401.247 342.589C399.807 341.069 398.1 339.825 396.252 338.734L393.447 336.964C392.534 336.357 391.626 335.815 390.708 335.361C388.856 334.508 386.616 334.22 384.439 333.675" fill="#CADBDA"/><path id="Fill 54" fill-rule="evenodd" clip-rule="evenodd" d="M409.231 371.309L379.445 362.955C377.521 362.415 377.11 359.262 377.649 357.338C378.189 355.414 380.205 354.282 382.128 354.821L411.354 363.018C413.278 363.558 414.411 365.573 413.871 367.497V367.497C413.331 369.421 411.155 371.849 409.231 371.309" fill="#FDCF3C"/></g></g></g><g id="Male Head" transform="translate(92 312) scale(1 1)"><g id="Male Head/Pompadour 2"><g id="Head"><path id="Fill 1" fill-rule="evenodd" clip-rule="evenodd" d="M77.6559 188.382C77.6549 188.38 77.6529 188.378 77.6509 188.376C77.6469 188.376 77.6429 188.375 77.6389 188.375C76.3729 191.183 76.5449 194.87 78.1349 197.258C127.345 205.385 162.685 202.814 189.705 198.118C192.377 196.219 193.153 190.77 191.647 188.382C162.107 193.085 117.85 194.072 77.6559 188.382" fill="#E35A38"/><g id="Group 5"><path id="Fill 3" fill-rule="evenodd" clip-rule="evenodd" d="M189.702 198.119C162.729 202.806 127.465 205.373 78.3907 197.299C78.1987 197.295 78.0937 197.293 78.0937 197.293C78.0937 197.293 75.5267 201.774 79.1597 205.408C123.575 216.082 173.556 210.97 189.74 205.408C192.058 201.169 189.74 198.118 189.74 198.118C189.74 198.118 189.714 198.118 189.702 198.119" fill="#E35A38"/></g><g id="Group 8"><path id="Fill 6" fill-rule="evenodd" clip-rule="evenodd" d="M141.511 48.0818C183.245 49.7328 213.951 85.5128 213.951 125.879C213.951 152.228 202.181 176.489 191.647 188.382C161.612 193.155 117.851 194.072 77.6565 188.382C58.0705 168.642 52.9995 149.064 52.9995 126.879C52.9995 88.6838 85.6275 45.8708 141.511 48.0818" fill="#CADBDA"/></g><path id="Fill 9" fill-rule="evenodd" clip-rule="evenodd" d="M141.635 79.0428C120.313 77.3898 100.02 88.7308 100.02 124.4C89.4507 117.575 81.6347 128.474 83.0657 140.474C83.9977 148.287 93.1947 157.208 101.341 150.822C105.621 183.094 138.673 192.1 149.763 192.1C161.719 192.1 172.215 177.985 174.778 166.581C176.421 159.269 176.055 151.668 176.849 144.215C177.665 136.555 179.22 128.973 179.22 121.269C179.22 104.584 170.038 81.2438 141.635 79.0428" fill="#edb0b0"/><path id="Fill 11" fill-rule="evenodd" clip-rule="evenodd" d="M101.341 150.822L102.388 191.049C102.388 191.049 121.427 192.313 131.415 192.313C137.8 192.313 149.763 192.099 149.763 192.099C136.396 191.806 105.441 181.731 101.341 150.822" fill="#16494C"/><path id="Fill 13" fill-rule="evenodd" clip-rule="evenodd" d="M92.13 122.397C92.13 122.397 86.083 109.114 90.375 98.1643C95.163 85.9443 101.934 82.6413 107.549 83.1363C108.375 76.2013 116.662 67.9873 132.319 71.4123C148.172 74.8793 158.081 80.7043 165.017 78.0173C171.952 75.3313 170.136 65.9623 170.136 65.9623C170.136 65.9623 181.695 70.9173 185.824 81.1553C189.663 90.6763 186.319 99.8153 176.293 105.465C166.539 110.962 138.104 112.036 116.631 101.136V112.354C116.631 114.833 115.859 117.249 114.422 119.268L112.936 121.358C111.368 123.561 110.555 126.211 110.617 128.915L110.78 136.06C110.819 137.755 109.456 139.151 107.76 139.151H103.331C101.717 139.151 100.388 137.883 100.313 136.271L99.758 124.4C99.758 124.4 96.776 122.03 92.13 122.397" fill="#751e0d"/><path id="Fill 15" fill-rule="evenodd" clip-rule="evenodd" d="M197.743 94.7654C199.266 97.2774 200.395 100.019 201.363 102.802C202.317 105.593 203.07 108.458 203.646 111.361C204.171 114.269 204.629 117.203 204.798 120.161C204.945 121.637 204.944 123.119 205.019 124.6C205.035 126.08 204.981 127.562 204.966 129.043L202.035 128.913C202.133 126.044 202.208 123.172 202.118 120.3L202.038 118.146L201.89 115.995C201.826 114.557 201.639 113.131 201.504 111.696C201.148 108.839 200.701 105.987 200.091 103.158C199.472 100.33 198.752 97.5144 197.743 94.7654" fill="white"/><path id="Fill 17" fill-rule="evenodd" clip-rule="evenodd" d="M204.095 138.43C203.67 141.359 203.095 144.264 202.364 147.127C201.663 149.997 200.794 152.823 199.815 155.601C198.842 158.382 197.719 161.107 196.489 163.775C195.254 166.44 193.905 169.049 192.407 171.568C193.388 168.806 194.357 166.055 195.254 163.289C196.156 160.526 196.976 157.745 197.737 154.955C198.491 152.163 199.146 149.35 199.74 146.531C200.303 143.705 200.792 140.868 201.188 138.021L204.095 138.43Z" fill="white"/><path id="Fill 19" fill-rule="evenodd" clip-rule="evenodd" d="M77.7354 198.704C99.3074 202.797 121.299 204.658 143.252 204.26C156.652 204.016 170.082 202.987 183.316 200.827C185.585 200.457 187.861 200.075 190.104 199.564C191.985 199.137 191.189 196.243 189.306 196.672C182.796 198.153 176.09 198.967 169.461 199.667C152.19 201.492 134.744 201.769 117.414 200.686C104.365 199.872 91.3784 198.248 78.5334 195.811C76.6464 195.453 75.8384 198.344 77.7354 198.704" fill="#8A1B64" fill-opacity="0.35189"/><path id="Fill 21" fill-rule="evenodd" clip-rule="evenodd" d="M92.0716 147.598C91.9036 147.598 91.7326 147.555 91.5756 147.466C91.0956 147.191 90.9306 146.58 91.2046 146.101C96.8736 136.207 91.3196 128.327 91.2626 128.248C90.9386 127.801 91.0386 127.176 91.4866 126.852C91.9336 126.529 92.5596 126.629 92.8826 127.077C93.1456 127.439 99.2436 136.093 92.9406 147.095C92.7556 147.417 92.4186 147.598 92.0716 147.598" fill="#16494C"/></g></g></g><g id="Expression" transform="translate(92 312) scale(1 1)"><g id="Expression/Happy"><g id="Face 9"><g id="Group 3"><path id="Fill 1" fill-rule="evenodd" clip-rule="evenodd" d="M128.821 124.258C130.223 121.974 132.688 120.317 135.379 120.041C138.239 119.747 141.037 120.904 142.956 123.016C144.258 124.447 146.374 122.321 145.078 120.895C142.605 118.173 138.806 116.654 135.133 117.067C131.454 117.481 128.166 119.59 126.23 122.744C125.218 124.394 127.812 125.903 128.821 124.258" fill="#16494C"/></g><g id="Group 6"><path id="Fill 4" fill-rule="evenodd" clip-rule="evenodd" d="M172.796 121.852C171.063 119.597 168.456 118.148 165.568 118.164C162.688 118.182 160.083 119.659 158.383 121.935C157.898 122.584 158.278 123.611 158.921 123.987C159.687 124.435 160.487 124.1 160.974 123.449C163.185 120.488 167.944 120.424 170.205 123.366C170.699 124.007 171.496 124.349 172.258 123.904C172.889 123.535 173.293 122.498 172.796 121.852" fill="#16494C"/></g><path id="Fill 7" fill-rule="evenodd" clip-rule="evenodd" d="M152.201 154.52C151.725 154.52 151.304 154.18 151.218 153.696C151.12 153.152 151.482 152.632 152.026 152.536C153.719 152.233 156.114 151.567 157.296 150.683C157.902 150.23 158.222 149.834 158.274 149.474C158.338 149.035 158.008 148.55 157.679 148.243C157.333 147.922 156.896 147.658 156.433 147.378C156.237 147.259 156.04 147.14 155.848 147.016C153.008 145.182 151.018 142.091 150.525 138.748C150.032 135.405 151.044 131.871 153.232 129.295C153.59 128.874 154.222 128.823 154.642 129.181C155.063 129.539 155.114 130.169 154.757 130.59C152.935 132.734 152.093 135.674 152.504 138.457C152.914 141.238 154.57 143.81 156.932 145.336C157.108 145.45 157.287 145.558 157.467 145.666C157.996 145.986 158.544 146.317 159.041 146.779C159.963 147.637 160.404 148.724 160.254 149.761C160.077 150.976 159.164 151.784 158.493 152.285C156.608 153.694 153.068 154.381 152.378 154.504C152.319 154.515 152.259 154.52 152.201 154.52" fill="#16494C"/><path id="Fill 9" fill-rule="evenodd" clip-rule="evenodd" d="M143.579 133.782C143.579 136.771 140.798 139.195 137.367 139.195C133.936 139.195 131.155 136.771 131.155 133.782C131.155 130.792 133.936 128.369 137.367 128.369C140.798 128.369 143.579 130.792 143.579 133.782" fill="#FFFCF8"/><path id="Fill 11" fill-rule="evenodd" clip-rule="evenodd" d="M143.579 133.782C143.579 136.058 141.824 137.905 139.66 137.905C137.496 137.905 135.741 136.058 135.741 133.782C135.741 131.505 137.496 129.659 139.66 129.659C141.824 129.659 143.579 131.505 143.579 133.782" fill="#16494C"/><path id="Fill 13" fill-rule="evenodd" clip-rule="evenodd" d="M170.803 133.782C170.803 136.771 168.022 139.195 164.591 139.195C161.16 139.195 158.379 136.771 158.379 133.782C158.379 130.792 161.16 128.369 164.591 128.369C168.022 128.369 170.803 130.792 170.803 133.782" fill="#FFFCF8"/><path id="Fill 15" fill-rule="evenodd" clip-rule="evenodd" d="M170.803 133.782C170.803 136.058 169.048 137.905 166.884 137.905C164.72 137.905 162.965 136.058 162.965 133.782C162.965 131.505 164.72 129.659 166.884 129.659C169.048 129.659 170.803 131.505 170.803 133.782" fill="#16494C"/><path id="Stroke 17" d="M163.164 163.822C163.583 163.462 164.214 163.51 164.574 163.929C164.934 164.347 164.887 164.979 164.468 165.339C163.961 165.775 162.962 166.377 161.415 166.961C158.908 167.907 155.743 168.47 151.867 168.47C148.005 168.47 144.572 167.912 141.608 166.979C139.81 166.414 138.556 165.84 137.881 165.441C137.406 165.16 137.248 164.547 137.529 164.072C137.81 163.596 138.423 163.439 138.899 163.72L139.099 163.83C139.245 163.905 139.447 164.005 139.704 164.123C140.408 164.444 141.244 164.768 142.208 165.072C144.983 165.945 148.215 166.47 151.867 166.47C155.505 166.47 158.43 165.95 160.708 165.09C161.489 164.795 162.13 164.483 162.64 164.176L162.859 164.039C162.923 163.998 162.977 163.961 163.022 163.929L163.164 163.822Z" fill="#16494C"/></g></g></g></g></g></g></svg>